<svg width="49" height="16" viewBox="0 0 49 16" fill="none" xmlns="http://www.w3.org/2000/svg">
<circle cx="7.5" cy="8" r="7.5" fill="#B0B0B0"/>
<path d="M32.0918 10.791L32.7656 13H33.8438L31.1367 4.46875H30.2285L27.4746 13H28.5586L29.2441 10.791H32.0918ZM29.5371 9.84766L30.6797 6.14453L31.8047 9.84766H29.5371ZM36.4102 9.57812H38.0918C38.4746 9.57422 38.8359 9.51562 39.1758 9.40234C39.5195 9.28906 39.8203 9.125 40.0781 8.91016C40.3359 8.69531 40.5391 8.43164 40.6875 8.11914C40.8398 7.80273 40.916 7.43945 40.916 7.0293C40.916 6.61914 40.8398 6.25586 40.6875 5.93945C40.5391 5.62305 40.3359 5.35742 40.0781 5.14258C39.8203 4.92773 39.5195 4.76367 39.1758 4.65039C38.8359 4.53711 38.4746 4.47656 38.0918 4.46875H35.3262V13H36.4102V9.57812ZM36.4102 8.6875V5.35938H38.0918C38.3418 5.36328 38.5723 5.4043 38.7832 5.48242C38.998 5.56055 39.1836 5.67188 39.3398 5.81641C39.4922 5.96094 39.6113 6.13672 39.6973 6.34375C39.7871 6.55078 39.832 6.7832 39.832 7.04102C39.832 7.29883 39.7871 7.5293 39.6973 7.73242C39.6113 7.93164 39.4902 8.10156 39.334 8.24219C39.1777 8.38281 38.9941 8.49219 38.7832 8.57031C38.5723 8.64453 38.3418 8.68359 38.0918 8.6875H36.4102ZM42.4336 4.46875V5.41211H44.4316V12.0625H42.4336V13H47.5898V12.0625H45.5449V5.41211H47.5898V4.46875H42.4336Z" fill="black"/>
</svg>
