<svg width="92" height="16" viewBox="0 0 92 16" fill="none" xmlns="http://www.w3.org/2000/svg">
<circle cx="7.5" cy="8" r="7.5" fill="#8B12FC"/>
<path d="M28.0078 13H30.7383C31.1016 12.9961 31.4531 12.9395 31.793 12.8301C32.1367 12.7207 32.4395 12.5625 32.7012 12.3555C32.9629 12.1523 33.1719 11.8984 33.3281 11.5938C33.4844 11.2891 33.5605 10.9375 33.5566 10.5391C33.5566 10.2852 33.5176 10.0488 33.4395 9.83008C33.3652 9.61133 33.2598 9.41406 33.123 9.23828C32.9941 9.07812 32.8301 8.93164 32.6309 8.79883C32.4316 8.66602 32.2246 8.57422 32.0098 8.52344V8.50586C32.2168 8.41602 32.3926 8.32031 32.5371 8.21875C32.6855 8.11719 32.8203 7.99219 32.9414 7.84375C33.0586 7.69922 33.1504 7.53516 33.2168 7.35156C33.2871 7.16797 33.3242 6.96484 33.3281 6.74219C33.332 6.34375 33.2559 6.00195 33.0996 5.7168C32.9434 5.43164 32.7344 5.19727 32.4727 5.01367C32.2109 4.83008 31.9121 4.69531 31.5762 4.60938C31.2402 4.51953 30.8965 4.47266 30.5449 4.46875H28.0078V13ZM29.0977 9.00977H30.8262C31.0566 9.01758 31.2715 9.05664 31.4707 9.12695C31.6699 9.19727 31.8438 9.29688 31.9922 9.42578C32.1406 9.55859 32.2559 9.71875 32.3379 9.90625C32.4238 10.0938 32.4648 10.3086 32.4609 10.5508C32.4609 10.7891 32.4141 11.002 32.3203 11.1895C32.2305 11.377 32.1074 11.5352 31.9512 11.6641C31.7949 11.793 31.6152 11.8945 31.4121 11.9688C31.209 12.0391 30.9941 12.0762 30.7676 12.0801H29.0977V9.00977ZM29.0977 8.10742V5.39453H30.5801C30.791 5.39844 30.9961 5.42578 31.1953 5.47656C31.3984 5.52734 31.5781 5.60547 31.7344 5.71094C31.8867 5.82031 32.0078 5.95898 32.0977 6.12695C32.1914 6.29492 32.2383 6.49805 32.2383 6.73633C32.2383 6.95898 32.1914 7.1543 32.0977 7.32227C32.0039 7.49023 31.8809 7.63086 31.7285 7.74414C31.5762 7.86133 31.4023 7.95117 31.207 8.01367C31.0117 8.07227 30.8125 8.10352 30.6094 8.10742H29.0977ZM34.9219 9.77148V9.90039C34.9219 10.3574 34.9883 10.7812 35.1211 11.1719C35.2539 11.5625 35.4453 11.9023 35.6953 12.1914C35.9414 12.4805 36.2422 12.707 36.5977 12.8711C36.957 13.0352 37.3613 13.1172 37.8105 13.1172C38.2559 13.1172 38.6562 13.0352 39.0117 12.8711C39.3672 12.707 39.6699 12.4805 39.9199 12.1914C40.166 11.9023 40.3555 11.5625 40.4883 11.1719C40.6211 10.7812 40.6875 10.3574 40.6875 9.90039V9.77148C40.6875 9.31445 40.6211 8.89062 40.4883 8.5C40.3555 8.10547 40.166 7.76367 39.9199 7.47461C39.6699 7.18555 39.3652 6.95898 39.0059 6.79492C38.6504 6.62695 38.248 6.54297 37.7988 6.54297C37.3535 6.54297 36.9531 6.62695 36.5977 6.79492C36.2422 6.95898 35.9414 7.18555 35.6953 7.47461C35.4453 7.76367 35.2539 8.10547 35.1211 8.5C34.9883 8.89062 34.9219 9.31445 34.9219 9.77148ZM36.0059 9.90039V9.77148C36.0059 9.46289 36.043 9.16797 36.1172 8.88672C36.1914 8.60156 36.3047 8.35156 36.457 8.13672C36.6055 7.92188 36.791 7.75195 37.0137 7.62695C37.2363 7.49805 37.498 7.43359 37.7988 7.43359C38.0996 7.43359 38.3613 7.49805 38.584 7.62695C38.8105 7.75195 39 7.92188 39.1523 8.13672C39.3008 8.35156 39.4121 8.60156 39.4863 8.88672C39.5645 9.16797 39.6035 9.46289 39.6035 9.77148V9.90039C39.6035 10.2129 39.5664 10.5117 39.4922 10.7969C39.418 11.0781 39.3066 11.3262 39.1582 11.541C39.0059 11.7559 38.8164 11.9258 38.5898 12.0508C38.3672 12.1758 38.1074 12.2383 37.8105 12.2383C37.5098 12.2383 37.2461 12.1758 37.0195 12.0508C36.793 11.9258 36.6055 11.7559 36.457 11.541C36.3047 11.3262 36.1914 11.0781 36.1172 10.7969C36.043 10.5117 36.0059 10.2129 36.0059 9.90039ZM42.1289 9.77148V9.90039C42.1289 10.3574 42.1953 10.7812 42.3281 11.1719C42.4609 11.5625 42.6523 11.9023 42.9023 12.1914C43.1484 12.4805 43.4492 12.707 43.8047 12.8711C44.1641 13.0352 44.5684 13.1172 45.0176 13.1172C45.4629 13.1172 45.8633 13.0352 46.2188 12.8711C46.5742 12.707 46.877 12.4805 47.127 12.1914C47.373 11.9023 47.5625 11.5625 47.6953 11.1719C47.8281 10.7812 47.8945 10.3574 47.8945 9.90039V9.77148C47.8945 9.31445 47.8281 8.89062 47.6953 8.5C47.5625 8.10547 47.373 7.76367 47.127 7.47461C46.877 7.18555 46.5723 6.95898 46.2129 6.79492C45.8574 6.62695 45.4551 6.54297 45.0059 6.54297C44.5605 6.54297 44.1602 6.62695 43.8047 6.79492C43.4492 6.95898 43.1484 7.18555 42.9023 7.47461C42.6523 7.76367 42.4609 8.10547 42.3281 8.5C42.1953 8.89062 42.1289 9.31445 42.1289 9.77148ZM43.2129 9.90039V9.77148C43.2129 9.46289 43.25 9.16797 43.3242 8.88672C43.3984 8.60156 43.5117 8.35156 43.6641 8.13672C43.8125 7.92188 43.998 7.75195 44.2207 7.62695C44.4434 7.49805 44.7051 7.43359 45.0059 7.43359C45.3066 7.43359 45.5684 7.49805 45.791 7.62695C46.0176 7.75195 46.207 7.92188 46.3594 8.13672C46.5078 8.35156 46.6191 8.60156 46.6934 8.88672C46.7715 9.16797 46.8105 9.46289 46.8105 9.77148V9.90039C46.8105 10.2129 46.7734 10.5117 46.6992 10.7969C46.625 11.0781 46.5137 11.3262 46.3652 11.541C46.2129 11.7559 46.0234 11.9258 45.7969 12.0508C45.5742 12.1758 45.3145 12.2383 45.0176 12.2383C44.7168 12.2383 44.4531 12.1758 44.2266 12.0508C44 11.9258 43.8125 11.7559 43.6641 11.541C43.5117 11.3262 43.3984 11.0781 43.3242 10.7969C43.25 10.5117 43.2129 10.2129 43.2129 9.90039ZM52.207 5.125H51.1172V6.66016H49.4531V7.49805H51.1172V10.9434C51.1172 11.334 51.168 11.668 51.2695 11.9453C51.375 12.2188 51.5176 12.4414 51.6973 12.6133C51.877 12.7891 52.0879 12.918 52.3301 13C52.5762 13.0781 52.8398 13.1172 53.1211 13.1172C53.2891 13.1172 53.457 13.1094 53.625 13.0938C53.7969 13.0781 53.959 13.0547 54.1113 13.0234C54.2637 12.9961 54.4043 12.9629 54.5332 12.9238C54.6621 12.8809 54.7715 12.832 54.8613 12.7773L54.709 12.0098C54.6426 12.0254 54.5566 12.0449 54.4512 12.0684C54.3496 12.0879 54.2402 12.1074 54.123 12.127C54.002 12.1465 53.8789 12.1641 53.7539 12.1797C53.6289 12.1914 53.5078 12.1973 53.3906 12.1973C53.2305 12.1973 53.0781 12.1777 52.9336 12.1387C52.793 12.0996 52.668 12.0312 52.5586 11.9336C52.4492 11.8398 52.3633 11.7129 52.3008 11.5527C52.2383 11.3926 52.207 11.1895 52.207 10.9434V7.49805H54.6211V6.66016H52.207V5.125ZM61.0605 11.3184C61.0605 11.4199 61.041 11.5156 61.002 11.6055C60.9629 11.6953 60.9062 11.7773 60.832 11.8516C60.7109 11.9727 60.543 12.0684 60.3281 12.1387C60.1133 12.2051 59.8613 12.2383 59.5723 12.2383C59.3887 12.2383 59.2031 12.2188 59.0156 12.1797C58.8281 12.1406 58.6582 12.0742 58.5059 11.9805C58.3496 11.8867 58.2188 11.7637 58.1133 11.6113C58.0117 11.459 57.9531 11.2715 57.9375 11.0488H56.8535C56.8535 11.3184 56.9141 11.5781 57.0352 11.8281C57.1602 12.0781 57.3398 12.2969 57.5742 12.4844C57.8047 12.6758 58.0879 12.8301 58.4238 12.9473C58.7598 13.0605 59.1426 13.1172 59.5723 13.1172C59.9473 13.1172 60.293 13.0723 60.6094 12.9824C60.9258 12.8926 61.1973 12.7656 61.4238 12.6016C61.6504 12.4375 61.8262 12.2402 61.9512 12.0098C62.0801 11.7793 62.1445 11.5234 62.1445 11.2422C62.1445 10.9805 62.0879 10.75 61.9746 10.5508C61.8652 10.3516 61.7051 10.1758 61.4941 10.0234C61.2832 9.875 61.0234 9.74805 60.7148 9.64258C60.4062 9.5332 60.0566 9.4375 59.666 9.35547C59.3691 9.29688 59.123 9.23633 58.9277 9.17383C58.7363 9.11133 58.584 9.04102 58.4707 8.96289C58.3535 8.88477 58.2715 8.79688 58.2246 8.69922C58.1777 8.60156 58.1543 8.49023 58.1543 8.36523C58.1543 8.24414 58.1836 8.12695 58.2422 8.01367C58.3008 7.90039 58.3887 7.80078 58.5059 7.71484C58.6191 7.62891 58.7617 7.56055 58.9336 7.50977C59.1094 7.45898 59.3125 7.43359 59.543 7.43359C59.7656 7.43359 59.9648 7.46484 60.1406 7.52734C60.3203 7.58984 60.4727 7.67188 60.5977 7.77344C60.7227 7.875 60.8203 7.99219 60.8906 8.125C60.9609 8.25391 60.9961 8.38672 60.9961 8.52344H62.0801C62.0801 8.24609 62.0195 7.98828 61.8984 7.75C61.7812 7.50781 61.6133 7.29688 61.3945 7.11719C61.1758 6.9375 60.9102 6.79688 60.5977 6.69531C60.2852 6.59375 59.9336 6.54297 59.543 6.54297C59.1797 6.54297 58.8457 6.5918 58.541 6.68945C58.2402 6.78711 57.9805 6.91992 57.7617 7.08789C57.543 7.25586 57.373 7.45312 57.252 7.67969C57.1309 7.90234 57.0703 8.14258 57.0703 8.40039C57.0703 8.66211 57.1289 8.89258 57.2461 9.0918C57.3633 9.28711 57.5293 9.45703 57.7441 9.60156C57.9551 9.75 58.209 9.87695 58.5059 9.98242C58.8066 10.0879 59.1387 10.1777 59.502 10.252C59.7988 10.3105 60.0469 10.377 60.2461 10.4512C60.4453 10.5215 60.6055 10.5996 60.7266 10.6855C60.8477 10.7715 60.9336 10.8672 60.9844 10.9727C61.0352 11.0742 61.0605 11.1895 61.0605 11.3184ZM66.6211 5.125H65.5312V6.66016H63.8672V7.49805H65.5312V10.9434C65.5312 11.334 65.582 11.668 65.6836 11.9453C65.7891 12.2188 65.9316 12.4414 66.1113 12.6133C66.291 12.7891 66.502 12.918 66.7441 13C66.9902 13.0781 67.2539 13.1172 67.5352 13.1172C67.7031 13.1172 67.8711 13.1094 68.0391 13.0938C68.2109 13.0781 68.373 13.0547 68.5254 13.0234C68.6777 12.9961 68.8184 12.9629 68.9473 12.9238C69.0762 12.8809 69.1855 12.832 69.2754 12.7773L69.123 12.0098C69.0566 12.0254 68.9707 12.0449 68.8652 12.0684C68.7637 12.0879 68.6543 12.1074 68.5371 12.127C68.416 12.1465 68.293 12.1641 68.168 12.1797C68.043 12.1914 67.9219 12.1973 67.8047 12.1973C67.6445 12.1973 67.4922 12.1777 67.3477 12.1387C67.207 12.0996 67.082 12.0312 66.9727 11.9336C66.8633 11.8398 66.7773 11.7129 66.7148 11.5527C66.6523 11.3926 66.6211 11.1895 66.6211 10.9434V7.49805H69.0352V6.66016H66.6211V5.125ZM75.416 6.54297C74.9551 6.54297 74.543 6.64453 74.1797 6.84766C73.8203 7.04688 73.5117 7.32031 73.2539 7.66797L73.248 7.50977L73.2012 6.66016H72.1699V13H73.2598V8.93359C73.3301 8.73828 73.418 8.5625 73.5234 8.40625C73.6328 8.24609 73.7598 8.11133 73.9043 8.00195C74.0645 7.87695 74.252 7.7832 74.4668 7.7207C74.6816 7.6543 74.9219 7.62109 75.1875 7.62109C75.3945 7.62109 75.5918 7.63281 75.7793 7.65625C75.9707 7.67578 76.1719 7.70898 76.3828 7.75586L76.5293 6.69531C76.4199 6.64844 76.2559 6.61133 76.0371 6.58398C75.8223 6.55664 75.6152 6.54297 75.416 6.54297ZM82.6348 13H83.7656V12.9062C83.6953 12.7305 83.6406 12.5254 83.6016 12.291C83.5625 12.0527 83.543 11.8281 83.543 11.6172V8.66992C83.543 8.31445 83.4785 8.00391 83.3496 7.73828C83.2207 7.47266 83.0449 7.25 82.8223 7.07031C82.5957 6.89453 82.3281 6.76367 82.0195 6.67773C81.7109 6.58789 81.377 6.54297 81.0176 6.54297C80.623 6.54297 80.2695 6.59766 79.957 6.70703C79.6484 6.81641 79.3867 6.95898 79.1719 7.13477C78.9531 7.31445 78.7852 7.51562 78.668 7.73828C78.5547 7.96094 78.4961 8.1875 78.4922 8.41797H79.582C79.582 8.28516 79.6133 8.1582 79.6758 8.03711C79.7422 7.91211 79.834 7.80469 79.9512 7.71484C80.0684 7.625 80.2109 7.55273 80.3789 7.49805C80.5508 7.44336 80.7441 7.41602 80.959 7.41602C81.1895 7.41602 81.3965 7.44531 81.5801 7.50391C81.7676 7.5625 81.9258 7.64453 82.0547 7.75C82.1836 7.85938 82.2832 7.99023 82.3535 8.14258C82.4238 8.29492 82.459 8.4668 82.459 8.6582V9.15625H81.2754C80.834 9.15625 80.4336 9.19922 80.0742 9.28516C79.7188 9.37109 79.4141 9.5 79.1602 9.67188C78.9062 9.84766 78.709 10.0664 78.5684 10.3281C78.4316 10.5898 78.3633 10.8945 78.3633 11.2422C78.3633 11.5078 78.4141 11.7559 78.5156 11.9863C78.6211 12.2129 78.7695 12.4082 78.9609 12.5723C79.1484 12.7402 79.377 12.873 79.6465 12.9707C79.9199 13.0684 80.2246 13.1172 80.5605 13.1172C80.7676 13.1172 80.9629 13.0957 81.1465 13.0527C81.3301 13.0098 81.5039 12.9512 81.668 12.877C81.8281 12.8027 81.9746 12.7168 82.1074 12.6191C82.2441 12.5215 82.3672 12.418 82.4766 12.3086C82.4883 12.4414 82.5059 12.5703 82.5293 12.6953C82.5566 12.8164 82.5918 12.918 82.6348 13ZM80.7188 12.1738C80.5078 12.1738 80.3223 12.1465 80.1621 12.0918C80.002 12.0371 79.8691 11.9609 79.7637 11.8633C79.6582 11.7695 79.5781 11.6562 79.5234 11.5234C79.4727 11.3906 79.4473 11.2461 79.4473 11.0898C79.4473 10.9258 79.4766 10.7793 79.5352 10.6504C79.5977 10.5215 79.6875 10.4102 79.8047 10.3164C79.9688 10.1836 80.1895 10.0859 80.4668 10.0234C80.748 9.95703 81.0762 9.92383 81.4512 9.92383H82.459V11.207C82.3965 11.332 82.3105 11.4531 82.2012 11.5703C82.0918 11.6836 81.9629 11.7852 81.8145 11.875C81.6621 11.9648 81.4941 12.0371 81.3105 12.0918C81.127 12.1465 80.9297 12.1738 80.7188 12.1738ZM85.6699 15.4375H86.7539V12.3906C86.832 12.4766 86.916 12.5566 87.0059 12.6309C87.0957 12.7012 87.1914 12.7656 87.293 12.8242C87.4609 12.918 87.6484 12.9902 87.8555 13.041C88.0664 13.0918 88.293 13.1172 88.5352 13.1172C88.9336 13.1172 89.2871 13.0352 89.5957 12.8711C89.9082 12.707 90.1699 12.4805 90.3809 12.1914C90.5918 11.9023 90.752 11.5625 90.8613 11.1719C90.9707 10.7773 91.0254 10.3535 91.0254 9.90039V9.77734C91.0254 9.30469 90.9707 8.87109 90.8613 8.47656C90.752 8.07812 90.5918 7.73633 90.3809 7.45117C90.1699 7.16602 89.9082 6.94336 89.5957 6.7832C89.2832 6.62305 88.9238 6.54297 88.5176 6.54297C88.2871 6.54297 88.0703 6.56836 87.8672 6.61914C87.668 6.66602 87.4863 6.73633 87.3223 6.83008C87.2051 6.89258 87.0957 6.96875 86.9941 7.05859C86.8926 7.14453 86.7988 7.24219 86.7129 7.35156L86.6602 6.66016H85.6699V15.4375ZM89.9414 9.77734V9.90039C89.9414 10.209 89.9062 10.5039 89.8359 10.7852C89.7695 11.0664 89.666 11.3145 89.5254 11.5293C89.3848 11.7441 89.2051 11.916 88.9863 12.0449C88.7676 12.1699 88.5078 12.2324 88.207 12.2324C88.0195 12.2324 87.8477 12.209 87.6914 12.1621C87.5391 12.1152 87.4004 12.0508 87.2754 11.9688C87.166 11.8984 87.0684 11.8125 86.9824 11.7109C86.8965 11.6094 86.8203 11.5 86.7539 11.3828V8.33008C86.8281 8.19727 86.9141 8.07617 87.0117 7.9668C87.1094 7.85742 87.2207 7.76562 87.3457 7.69141C87.459 7.61719 87.5859 7.56055 87.7266 7.52148C87.8711 7.48242 88.0273 7.46289 88.1953 7.46289C88.5 7.46289 88.7617 7.52539 88.9805 7.65039C89.1992 7.77539 89.3809 7.94336 89.5254 8.1543C89.666 8.36914 89.7695 8.61719 89.8359 8.89844C89.9062 9.17578 89.9414 9.46875 89.9414 9.77734Z" fill="black"/>
</svg>
