<svg width="64" height="16" viewBox="0 0 64 16" fill="none" xmlns="http://www.w3.org/2000/svg">
<circle cx="7.5" cy="8" r="7.5" fill="#25D1B2"/>
<path d="M28.0078 13H30.7383C31.1016 12.9961 31.4531 12.9395 31.793 12.8301C32.1367 12.7207 32.4395 12.5625 32.7012 12.3555C32.9629 12.1523 33.1719 11.8984 33.3281 11.5938C33.4844 11.2891 33.5605 10.9375 33.5566 10.5391C33.5566 10.2852 33.5176 10.0488 33.4395 9.83008C33.3652 9.61133 33.2598 9.41406 33.123 9.23828C32.9941 9.07812 32.8301 8.93164 32.6309 8.79883C32.4316 8.66602 32.2246 8.57422 32.0098 8.52344V8.50586C32.2168 8.41602 32.3926 8.32031 32.5371 8.21875C32.6855 8.11719 32.8203 7.99219 32.9414 7.84375C33.0586 7.69922 33.1504 7.53516 33.2168 7.35156C33.2871 7.16797 33.3242 6.96484 33.3281 6.74219C33.332 6.34375 33.2559 6.00195 33.0996 5.7168C32.9434 5.43164 32.7344 5.19727 32.4727 5.01367C32.2109 4.83008 31.9121 4.69531 31.5762 4.60938C31.2402 4.51953 30.8965 4.47266 30.5449 4.46875H28.0078V13ZM29.0977 9.00977H30.8262C31.0566 9.01758 31.2715 9.05664 31.4707 9.12695C31.6699 9.19727 31.8438 9.29688 31.9922 9.42578C32.1406 9.55859 32.2559 9.71875 32.3379 9.90625C32.4238 10.0938 32.4648 10.3086 32.4609 10.5508C32.4609 10.7891 32.4141 11.002 32.3203 11.1895C32.2305 11.377 32.1074 11.5352 31.9512 11.6641C31.7949 11.793 31.6152 11.8945 31.4121 11.9688C31.209 12.0391 30.9941 12.0762 30.7676 12.0801H29.0977V9.00977ZM29.0977 8.10742V5.39453H30.5801C30.791 5.39844 30.9961 5.42578 31.1953 5.47656C31.3984 5.52734 31.5781 5.60547 31.7344 5.71094C31.8867 5.82031 32.0078 5.95898 32.0977 6.12695C32.1914 6.29492 32.2383 6.49805 32.2383 6.73633C32.2383 6.95898 32.1914 7.1543 32.0977 7.32227C32.0039 7.49023 31.8809 7.63086 31.7285 7.74414C31.5762 7.86133 31.4023 7.95117 31.207 8.01367C31.0117 8.07227 30.8125 8.10352 30.6094 8.10742H29.0977ZM39.4043 13H40.3887V6.66016H39.2988V11.207C39.2402 11.3438 39.166 11.4707 39.0762 11.5879C38.9902 11.7012 38.8887 11.7988 38.7715 11.8809C38.6309 11.9824 38.4648 12.0625 38.2734 12.1211C38.082 12.1758 37.8652 12.2031 37.623 12.2031C37.416 12.2031 37.2324 12.1758 37.0723 12.1211C36.916 12.0664 36.7832 11.9707 36.6738 11.834C36.5645 11.7012 36.4824 11.5215 36.4277 11.2949C36.373 11.0684 36.3457 10.7832 36.3457 10.4395V6.66016H35.2617V10.4277C35.2617 10.9004 35.3125 11.3066 35.4141 11.6465C35.5195 11.9824 35.668 12.2598 35.8594 12.4785C36.0508 12.6973 36.2812 12.8594 36.5508 12.9648C36.8203 13.0664 37.1211 13.1172 37.4531 13.1172C37.8672 13.1172 38.2324 13.0312 38.5488 12.8594C38.8652 12.6836 39.1289 12.4395 39.3398 12.127L39.4043 13ZM42.6035 4V4.94336H44.7598V12.0625H42.6035V13H47.9121V12.0625H45.8438V4H42.6035ZM50.1387 6.66016H49.166V13H50.1973V7.95508C50.2207 7.89258 50.25 7.83398 50.2852 7.7793C50.3242 7.72461 50.3691 7.67578 50.4199 7.63281C50.4863 7.57812 50.5664 7.53711 50.6602 7.50977C50.7578 7.47852 50.8711 7.46289 51 7.46289C51.1172 7.46289 51.2188 7.47852 51.3047 7.50977C51.3945 7.53711 51.4688 7.58203 51.5273 7.64453C51.5898 7.71094 51.6348 7.79492 51.6621 7.89648C51.6934 7.99805 51.709 8.11523 51.709 8.24805V13H52.7402V8.25391C52.7402 8.23047 52.7402 8.21094 52.7402 8.19531C52.7402 8.17578 52.7402 8.15625 52.7402 8.13672C52.752 8.03906 52.7754 7.95117 52.8105 7.87305C52.8457 7.79102 52.8945 7.71875 52.957 7.65625C53.0195 7.59766 53.0977 7.55078 53.1914 7.51562C53.2852 7.48047 53.3965 7.46289 53.5254 7.46289C53.6465 7.46289 53.752 7.47852 53.8418 7.50977C53.9355 7.54102 54.0137 7.58789 54.0762 7.65039C54.1348 7.7168 54.1797 7.80078 54.2109 7.90234C54.2422 8.00391 54.2578 8.12109 54.2578 8.25391V13H55.2891V8.26562C55.2891 7.96094 55.2539 7.69727 55.1836 7.47461C55.1133 7.24805 55.0117 7.06445 54.8789 6.92383C54.7578 6.79883 54.6094 6.70508 54.4336 6.64258C54.2578 6.57617 54.0605 6.54297 53.8418 6.54297C53.6816 6.54688 53.5332 6.56836 53.3965 6.60742C53.2637 6.64648 53.1426 6.69922 53.0332 6.76562C52.9473 6.82422 52.8672 6.89258 52.793 6.9707C52.7188 7.04883 52.6543 7.13281 52.5996 7.22266C52.5566 7.125 52.5039 7.03711 52.4414 6.95898C52.3828 6.88086 52.3164 6.81445 52.2422 6.75977C52.1406 6.68945 52.0215 6.63672 51.8848 6.60156C51.752 6.5625 51.6016 6.54297 51.4336 6.54297C51.1367 6.54688 50.8828 6.61133 50.6719 6.73633C50.4648 6.86133 50.2969 7.03516 50.168 7.25781L50.1387 6.66016ZM61.0137 13H62.1445V12.9062C62.0742 12.7305 62.0195 12.5254 61.9805 12.291C61.9414 12.0527 61.9219 11.8281 61.9219 11.6172V8.66992C61.9219 8.31445 61.8574 8.00391 61.7285 7.73828C61.5996 7.47266 61.4238 7.25 61.2012 7.07031C60.9746 6.89453 60.707 6.76367 60.3984 6.67773C60.0898 6.58789 59.7559 6.54297 59.3965 6.54297C59.002 6.54297 58.6484 6.59766 58.3359 6.70703C58.0273 6.81641 57.7656 6.95898 57.5508 7.13477C57.332 7.31445 57.1641 7.51562 57.0469 7.73828C56.9336 7.96094 56.875 8.1875 56.8711 8.41797H57.9609C57.9609 8.28516 57.9922 8.1582 58.0547 8.03711C58.1211 7.91211 58.2129 7.80469 58.3301 7.71484C58.4473 7.625 58.5898 7.55273 58.7578 7.49805C58.9297 7.44336 59.123 7.41602 59.3379 7.41602C59.5684 7.41602 59.7754 7.44531 59.959 7.50391C60.1465 7.5625 60.3047 7.64453 60.4336 7.75C60.5625 7.85938 60.6621 7.99023 60.7324 8.14258C60.8027 8.29492 60.8379 8.4668 60.8379 8.6582V9.15625H59.6543C59.2129 9.15625 58.8125 9.19922 58.4531 9.28516C58.0977 9.37109 57.793 9.5 57.5391 9.67188C57.2852 9.84766 57.0879 10.0664 56.9473 10.3281C56.8105 10.5898 56.7422 10.8945 56.7422 11.2422C56.7422 11.5078 56.793 11.7559 56.8945 11.9863C57 12.2129 57.1484 12.4082 57.3398 12.5723C57.5273 12.7402 57.7559 12.873 58.0254 12.9707C58.2988 13.0684 58.6035 13.1172 58.9395 13.1172C59.1465 13.1172 59.3418 13.0957 59.5254 13.0527C59.709 13.0098 59.8828 12.9512 60.0469 12.877C60.207 12.8027 60.3535 12.7168 60.4863 12.6191C60.623 12.5215 60.7461 12.418 60.8555 12.3086C60.8672 12.4414 60.8848 12.5703 60.9082 12.6953C60.9355 12.8164 60.9707 12.918 61.0137 13ZM59.0977 12.1738C58.8867 12.1738 58.7012 12.1465 58.541 12.0918C58.3809 12.0371 58.248 11.9609 58.1426 11.8633C58.0371 11.7695 57.957 11.6562 57.9023 11.5234C57.8516 11.3906 57.8262 11.2461 57.8262 11.0898C57.8262 10.9258 57.8555 10.7793 57.9141 10.6504C57.9766 10.5215 58.0664 10.4102 58.1836 10.3164C58.3477 10.1836 58.5684 10.0859 58.8457 10.0234C59.127 9.95703 59.4551 9.92383 59.8301 9.92383H60.8379V11.207C60.7754 11.332 60.6895 11.4531 60.5801 11.5703C60.4707 11.6836 60.3418 11.7852 60.1934 11.875C60.041 11.9648 59.873 12.0371 59.6895 12.0918C59.5059 12.1465 59.3086 12.1738 59.0977 12.1738Z" fill="black"/>
</svg>
