<svg width="49" height="16" viewBox="0 0 49 16" fill="none" xmlns="http://www.w3.org/2000/svg">
<circle cx="7.5" cy="8" r="7.5" fill="#264DE4"/>
<path d="M33.5449 10.4336H32.4609C32.4258 10.6914 32.3652 10.9316 32.2793 11.1543C32.1934 11.373 32.0781 11.5625 31.9336 11.7227C31.7891 11.8867 31.6113 12.0137 31.4004 12.1035C31.1934 12.1934 30.9473 12.2383 30.6621 12.2383C30.4004 12.2383 30.1719 12.1973 29.9766 12.1152C29.7812 12.0293 29.6113 11.9121 29.4668 11.7637C29.3223 11.6191 29.2031 11.4512 29.1094 11.2598C29.0156 11.0684 28.9395 10.8633 28.8809 10.6445C28.8223 10.4297 28.7793 10.2109 28.752 9.98828C28.7285 9.76172 28.7168 9.54297 28.7168 9.33203V8.13086C28.7168 7.91992 28.7285 7.70312 28.752 7.48047C28.7793 7.25391 28.8223 7.0332 28.8809 6.81836C28.9395 6.60352 29.0156 6.40039 29.1094 6.20898C29.207 6.01758 29.3281 5.84961 29.4727 5.70508C29.6133 5.56055 29.7812 5.44727 29.9766 5.36523C30.1758 5.2793 30.4043 5.23633 30.6621 5.23633C30.9473 5.23633 31.1934 5.28516 31.4004 5.38281C31.6113 5.47656 31.7891 5.60742 31.9336 5.77539C32.0781 5.94336 32.1934 6.13867 32.2793 6.36133C32.3652 6.58398 32.4258 6.82422 32.4609 7.08203H33.5449C33.498 6.67578 33.4004 6.30469 33.252 5.96875C33.1074 5.63281 32.9141 5.34375 32.6719 5.10156C32.4297 4.86328 32.1406 4.67969 31.8047 4.55078C31.4688 4.41797 31.0879 4.35156 30.6621 4.35156C30.3066 4.35156 29.9863 4.40234 29.7012 4.50391C29.416 4.60156 29.1621 4.73828 28.9395 4.91406C28.7129 5.08984 28.5176 5.29883 28.3535 5.54102C28.1934 5.7793 28.0605 6.03906 27.9551 6.32031C27.8457 6.60156 27.7637 6.89648 27.709 7.20508C27.6582 7.51367 27.6309 7.82617 27.627 8.14258V9.33203C27.6309 9.64844 27.6582 9.96094 27.709 10.2695C27.7637 10.5781 27.8457 10.873 27.9551 11.1543C28.0605 11.4355 28.1934 11.6953 28.3535 11.9336C28.5176 12.1719 28.7129 12.3789 28.9395 12.5547C29.1621 12.7305 29.416 12.8691 29.7012 12.9707C29.9902 13.0684 30.3105 13.1172 30.6621 13.1172C31.0723 13.1172 31.4434 13.0527 31.7754 12.9238C32.1113 12.791 32.4023 12.6055 32.6484 12.3672C32.8906 12.1328 33.0879 11.8516 33.2402 11.5234C33.3926 11.1914 33.4941 10.8281 33.5449 10.4336ZM39.6914 10.8438C39.6914 11.0781 39.6406 11.2812 39.5391 11.4531C39.4375 11.6211 39.3066 11.7598 39.1465 11.8691C38.9863 11.9824 38.8027 12.0664 38.5957 12.1211C38.3926 12.1719 38.1855 12.1973 37.9746 12.1973C37.709 12.1973 37.4629 12.1621 37.2363 12.0918C37.0137 12.0176 36.8164 11.9082 36.6445 11.7637C36.4727 11.623 36.332 11.4512 36.2227 11.248C36.1133 11.041 36.041 10.8047 36.0059 10.5391H34.8984C34.9102 10.9062 34.9902 11.2402 35.1387 11.541C35.291 11.8379 35.4961 12.0977 35.7539 12.3203C36.043 12.5781 36.3828 12.7754 36.7734 12.9121C37.168 13.0488 37.5684 13.1172 37.9746 13.1172C38.3145 13.1172 38.6543 13.0703 38.9941 12.9766C39.334 12.8789 39.6387 12.7344 39.9082 12.543C40.1777 12.3555 40.3965 12.1191 40.5645 11.834C40.7363 11.5488 40.8223 11.2148 40.8223 10.832C40.8223 10.4531 40.7422 10.1191 40.582 9.83008C40.4258 9.54102 40.2188 9.29688 39.9609 9.09766C39.6992 8.88281 39.4102 8.70703 39.0938 8.57031C38.7773 8.42969 38.4609 8.31055 38.1445 8.21289C37.9531 8.1543 37.748 8.08594 37.5293 8.00781C37.3145 7.92969 37.1152 7.83203 36.9316 7.71484C36.7441 7.59766 36.5898 7.45508 36.4688 7.28711C36.3477 7.11523 36.2852 6.90625 36.2812 6.66016C36.2812 6.43359 36.3262 6.23438 36.416 6.0625C36.5098 5.89062 36.6348 5.74609 36.791 5.62891C36.9434 5.51172 37.1172 5.42383 37.3125 5.36523C37.5117 5.30664 37.7148 5.27734 37.9219 5.27734C38.1797 5.27734 38.4102 5.31836 38.6133 5.40039C38.8203 5.47852 38.998 5.58984 39.1465 5.73438C39.2949 5.87891 39.4141 6.05273 39.5039 6.25586C39.5938 6.45508 39.6543 6.67773 39.6855 6.92383H40.7988C40.791 6.5332 40.707 6.17969 40.5469 5.86328C40.3867 5.54688 40.1738 5.27734 39.9082 5.05469C39.6426 4.83203 39.3379 4.66016 38.9941 4.53906C38.6504 4.41406 38.293 4.35156 37.9219 4.35156C37.5859 4.35156 37.252 4.4043 36.9199 4.50977C36.5879 4.61133 36.291 4.76172 36.0293 4.96094C35.7676 5.16016 35.5547 5.4043 35.3906 5.69336C35.2305 5.98242 35.1504 6.31055 35.1504 6.67773C35.1504 7.04492 35.2305 7.36523 35.3906 7.63867C35.5547 7.9082 35.7656 8.14258 36.0234 8.3418C36.2773 8.53711 36.5586 8.70508 36.8672 8.8457C37.1797 8.98242 37.4863 9.09961 37.7871 9.19727C37.9941 9.26367 38.209 9.33789 38.4316 9.41992C38.6582 9.50195 38.8652 9.60352 39.0527 9.72461C39.2402 9.84961 39.3926 10.002 39.5098 10.1816C39.6309 10.3613 39.6914 10.582 39.6914 10.8438ZM46.8984 10.8438C46.8984 11.0781 46.8477 11.2812 46.7461 11.4531C46.6445 11.6211 46.5137 11.7598 46.3535 11.8691C46.1934 11.9824 46.0098 12.0664 45.8027 12.1211C45.5996 12.1719 45.3926 12.1973 45.1816 12.1973C44.916 12.1973 44.6699 12.1621 44.4434 12.0918C44.2207 12.0176 44.0234 11.9082 43.8516 11.7637C43.6797 11.623 43.5391 11.4512 43.4297 11.248C43.3203 11.041 43.248 10.8047 43.2129 10.5391H42.1055C42.1172 10.9062 42.1973 11.2402 42.3457 11.541C42.498 11.8379 42.7031 12.0977 42.9609 12.3203C43.25 12.5781 43.5898 12.7754 43.9805 12.9121C44.375 13.0488 44.7754 13.1172 45.1816 13.1172C45.5215 13.1172 45.8613 13.0703 46.2012 12.9766C46.541 12.8789 46.8457 12.7344 47.1152 12.543C47.3848 12.3555 47.6035 12.1191 47.7715 11.834C47.9434 11.5488 48.0293 11.2148 48.0293 10.832C48.0293 10.4531 47.9492 10.1191 47.7891 9.83008C47.6328 9.54102 47.4258 9.29688 47.168 9.09766C46.9062 8.88281 46.6172 8.70703 46.3008 8.57031C45.9844 8.42969 45.668 8.31055 45.3516 8.21289C45.1602 8.1543 44.9551 8.08594 44.7363 8.00781C44.5215 7.92969 44.3223 7.83203 44.1387 7.71484C43.9512 7.59766 43.7969 7.45508 43.6758 7.28711C43.5547 7.11523 43.4922 6.90625 43.4883 6.66016C43.4883 6.43359 43.5332 6.23438 43.623 6.0625C43.7168 5.89062 43.8418 5.74609 43.998 5.62891C44.1504 5.51172 44.3242 5.42383 44.5195 5.36523C44.7188 5.30664 44.9219 5.27734 45.1289 5.27734C45.3867 5.27734 45.6172 5.31836 45.8203 5.40039C46.0273 5.47852 46.2051 5.58984 46.3535 5.73438C46.502 5.87891 46.6211 6.05273 46.7109 6.25586C46.8008 6.45508 46.8613 6.67773 46.8926 6.92383H48.0059C47.998 6.5332 47.9141 6.17969 47.7539 5.86328C47.5938 5.54688 47.3809 5.27734 47.1152 5.05469C46.8496 4.83203 46.5449 4.66016 46.2012 4.53906C45.8574 4.41406 45.5 4.35156 45.1289 4.35156C44.793 4.35156 44.459 4.4043 44.127 4.50977C43.7949 4.61133 43.498 4.76172 43.2363 4.96094C42.9746 5.16016 42.7617 5.4043 42.5977 5.69336C42.4375 5.98242 42.3574 6.31055 42.3574 6.67773C42.3574 7.04492 42.4375 7.36523 42.5977 7.63867C42.7617 7.9082 42.9727 8.14258 43.2305 8.3418C43.4844 8.53711 43.7656 8.70508 44.0742 8.8457C44.3867 8.98242 44.6934 9.09961 44.9941 9.19727C45.2012 9.26367 45.416 9.33789 45.6387 9.41992C45.8652 9.50195 46.0723 9.60352 46.2598 9.72461C46.4473 9.84961 46.5996 10.002 46.7168 10.1816C46.8379 10.3613 46.8984 10.582 46.8984 10.8438Z" fill="black"/>
</svg>
