<svg width="100" height="16" viewBox="0 0 100 16" fill="none" xmlns="http://www.w3.org/2000/svg">
<circle cx="7.5" cy="8" r="7.5" fill="#E6E6E6"/>
<path d="M30.8203 13.1172C30.375 13.1172 29.9648 13.041 29.5898 12.8887C29.2188 12.7363 28.9004 12.5234 28.6348 12.25C28.3691 11.9766 28.1621 11.6523 28.0137 11.2773C27.8652 10.9023 27.791 10.4941 27.791 10.0527V9.80664C27.791 9.29492 27.873 8.83789 28.0371 8.43555C28.2012 8.0293 28.4199 7.68555 28.6934 7.4043C28.9629 7.12695 29.2695 6.91406 29.6133 6.76562C29.9609 6.61719 30.3164 6.54297 30.6797 6.54297C31.1367 6.54297 31.5352 6.62305 31.875 6.7832C32.2188 6.93945 32.5039 7.15625 32.7305 7.43359C32.957 7.71484 33.125 8.04492 33.2344 8.42383C33.3477 8.80273 33.4043 9.21289 33.4043 9.6543V10.1406H28.875V10.1816C28.9023 10.4902 28.9629 10.7617 29.0566 10.9961C29.1543 11.2305 29.2871 11.4375 29.4551 11.6172C29.627 11.8086 29.834 11.959 30.0762 12.0684C30.3184 12.1777 30.5859 12.2324 30.8789 12.2324C31.2656 12.2324 31.6094 12.1543 31.9102 11.998C32.2109 11.8418 32.4609 11.6348 32.6602 11.377L33.3223 11.8926C33.1113 12.2129 32.7949 12.498 32.373 12.748C31.9551 12.9941 31.4375 13.1172 30.8203 13.1172ZM30.6797 7.43359C30.4609 7.43359 30.2539 7.47461 30.0586 7.55664C29.8633 7.63477 29.6875 7.75 29.5312 7.90234C29.375 8.05859 29.2422 8.25 29.1328 8.47656C29.0273 8.69922 28.9531 8.95703 28.9102 9.25H32.3203V9.19727C32.3203 9.00195 32.2832 8.79297 32.209 8.57031C32.1348 8.34375 32.0312 8.14844 31.8984 7.98438C31.7656 7.82031 31.5977 7.6875 31.3945 7.58594C31.1953 7.48438 30.957 7.43359 30.6797 7.43359ZM37.8457 9.00977L39.5391 6.66016H40.8105L38.4492 9.79492L40.875 13H39.6211L37.8691 10.5859L36.1172 13H34.8516L37.2773 9.79492L34.916 6.66016H36.1699L37.8457 9.00977ZM42.4277 15.4375V6.66016H43.418L43.4707 7.35156C43.5566 7.24219 43.6504 7.14453 43.752 7.05859C43.8535 6.96875 43.9629 6.89258 44.0801 6.83008C44.2441 6.73633 44.4258 6.66602 44.625 6.61914C44.8281 6.56836 45.0449 6.54297 45.2754 6.54297C45.6816 6.54297 46.041 6.62305 46.3535 6.7832C46.666 6.94336 46.9277 7.16602 47.1387 7.45117C47.3496 7.73633 47.5098 8.07812 47.6191 8.47656C47.7285 8.87109 47.7832 9.30469 47.7832 9.77734V9.90039C47.7832 10.3535 47.7285 10.7773 47.6191 11.1719C47.5098 11.5625 47.3496 11.9023 47.1387 12.1914C46.9277 12.4805 46.666 12.707 46.3535 12.8711C46.0449 13.0352 45.6914 13.1172 45.293 13.1172C45.0508 13.1172 44.8242 13.0918 44.6133 13.041C44.4062 12.9902 44.2188 12.918 44.0508 12.8242C43.9492 12.7656 43.8535 12.7012 43.7637 12.6309C43.6738 12.5566 43.5898 12.4766 43.5117 12.3906V15.4375H42.4277ZM46.6992 9.77734C46.6992 9.46875 46.6641 9.17578 46.5938 8.89844C46.5273 8.61719 46.4238 8.36914 46.2832 8.1543C46.1387 7.94336 45.957 7.77539 45.7383 7.65039C45.5195 7.52539 45.2578 7.46289 44.9531 7.46289C44.7852 7.46289 44.6289 7.48242 44.4844 7.52148C44.3438 7.56055 44.2168 7.61719 44.1035 7.69141C43.9785 7.76562 43.8672 7.85742 43.7695 7.9668C43.6719 8.07617 43.5859 8.19727 43.5117 8.33008V11.3828C43.5781 11.5 43.6543 11.6094 43.7402 11.7109C43.8262 11.8125 43.9238 11.8984 44.0332 11.9688C44.1582 12.0508 44.2969 12.1152 44.4492 12.1621C44.6055 12.209 44.7773 12.2324 44.9648 12.2324C45.2656 12.2324 45.5254 12.1699 45.7441 12.0449C45.9629 11.916 46.1426 11.7441 46.2832 11.5293C46.4238 11.3145 46.5273 11.0664 46.5938 10.7852C46.6641 10.5039 46.6992 10.209 46.6992 9.90039V9.77734ZM53.7949 6.54297C53.9941 6.54297 54.2012 6.55664 54.416 6.58398C54.6348 6.61133 54.7988 6.64844 54.9082 6.69531L54.7617 7.75586C54.5508 7.70898 54.3496 7.67578 54.1582 7.65625C53.9707 7.63281 53.7734 7.62109 53.5664 7.62109C53.3008 7.62109 53.0605 7.6543 52.8457 7.7207C52.6309 7.7832 52.4434 7.87695 52.2832 8.00195C52.1387 8.11133 52.0117 8.24609 51.9023 8.40625C51.7969 8.5625 51.709 8.73828 51.6387 8.93359V13H50.5488V6.66016H51.5801L51.627 7.50977L51.6328 7.66797C51.8906 7.32031 52.1992 7.04688 52.5586 6.84766C52.9219 6.64453 53.334 6.54297 53.7949 6.54297ZM59.6484 13.1172C59.2031 13.1172 58.793 13.041 58.418 12.8887C58.0469 12.7363 57.7285 12.5234 57.4629 12.25C57.1973 11.9766 56.9902 11.6523 56.8418 11.2773C56.6934 10.9023 56.6191 10.4941 56.6191 10.0527V9.80664C56.6191 9.29492 56.7012 8.83789 56.8652 8.43555C57.0293 8.0293 57.248 7.68555 57.5215 7.4043C57.791 7.12695 58.0977 6.91406 58.4414 6.76562C58.7891 6.61719 59.1445 6.54297 59.5078 6.54297C59.9648 6.54297 60.3633 6.62305 60.7031 6.7832C61.0469 6.93945 61.332 7.15625 61.5586 7.43359C61.7852 7.71484 61.9531 8.04492 62.0625 8.42383C62.1758 8.80273 62.2324 9.21289 62.2324 9.6543V10.1406H57.7031V10.1816C57.7305 10.4902 57.791 10.7617 57.8848 10.9961C57.9824 11.2305 58.1152 11.4375 58.2832 11.6172C58.4551 11.8086 58.6621 11.959 58.9043 12.0684C59.1465 12.1777 59.4141 12.2324 59.707 12.2324C60.0938 12.2324 60.4375 12.1543 60.7383 11.998C61.0391 11.8418 61.2891 11.6348 61.4883 11.377L62.1504 11.8926C61.9395 12.2129 61.623 12.498 61.2012 12.748C60.7832 12.9941 60.2656 13.1172 59.6484 13.1172ZM59.5078 7.43359C59.2891 7.43359 59.082 7.47461 58.8867 7.55664C58.6914 7.63477 58.5156 7.75 58.3594 7.90234C58.2031 8.05859 58.0703 8.25 57.9609 8.47656C57.8555 8.69922 57.7812 8.95703 57.7383 9.25H61.1484V9.19727C61.1484 9.00195 61.1113 8.79297 61.0371 8.57031C60.9629 8.34375 60.8594 8.14844 60.7266 7.98438C60.5938 7.82031 60.4258 7.6875 60.2227 7.58594C60.0234 7.48438 59.7852 7.43359 59.5078 7.43359ZM68.2676 11.3184C68.2676 11.1895 68.2422 11.0742 68.1914 10.9727C68.1406 10.8672 68.0547 10.7715 67.9336 10.6855C67.8125 10.5996 67.6523 10.5215 67.4531 10.4512C67.2539 10.377 67.0059 10.3105 66.709 10.252C66.3457 10.1777 66.0137 10.0879 65.7129 9.98242C65.416 9.87695 65.1621 9.75 64.9512 9.60156C64.7363 9.45703 64.5703 9.28711 64.4531 9.0918C64.3359 8.89258 64.2773 8.66211 64.2773 8.40039C64.2773 8.14258 64.3379 7.90234 64.459 7.67969C64.5801 7.45312 64.75 7.25586 64.9688 7.08789C65.1875 6.91992 65.4473 6.78711 65.748 6.68945C66.0527 6.5918 66.3867 6.54297 66.75 6.54297C67.1406 6.54297 67.4922 6.59375 67.8047 6.69531C68.1172 6.79688 68.3828 6.9375 68.6016 7.11719C68.8203 7.29688 68.9883 7.50781 69.1055 7.75C69.2266 7.98828 69.2871 8.24609 69.2871 8.52344H68.2031C68.2031 8.38672 68.168 8.25391 68.0977 8.125C68.0273 7.99219 67.9297 7.875 67.8047 7.77344C67.6797 7.67188 67.5273 7.58984 67.3477 7.52734C67.1719 7.46484 66.9727 7.43359 66.75 7.43359C66.5195 7.43359 66.3164 7.45898 66.1406 7.50977C65.9688 7.56055 65.8262 7.62891 65.7129 7.71484C65.5957 7.80078 65.5078 7.90039 65.4492 8.01367C65.3906 8.12695 65.3613 8.24414 65.3613 8.36523C65.3613 8.49023 65.3848 8.60156 65.4316 8.69922C65.4785 8.79688 65.5605 8.88477 65.6777 8.96289C65.791 9.04102 65.9434 9.11133 66.1348 9.17383C66.3301 9.23633 66.5762 9.29688 66.873 9.35547C67.2637 9.4375 67.6133 9.5332 67.9219 9.64258C68.2305 9.74805 68.4902 9.875 68.7012 10.0234C68.9121 10.1758 69.0723 10.3516 69.1816 10.5508C69.2949 10.75 69.3516 10.9805 69.3516 11.2422C69.3516 11.5234 69.2871 11.7793 69.1582 12.0098C69.0332 12.2402 68.8574 12.4375 68.6309 12.6016C68.4043 12.7656 68.1328 12.8926 67.8164 12.9824C67.5 13.0723 67.1543 13.1172 66.7793 13.1172C66.3496 13.1172 65.9668 13.0605 65.6309 12.9473C65.2949 12.8301 65.0117 12.6758 64.7812 12.4844C64.5469 12.2969 64.3672 12.0781 64.2422 11.8281C64.1211 11.5781 64.0605 11.3184 64.0605 11.0488H65.1445C65.1602 11.2715 65.2188 11.459 65.3203 11.6113C65.4258 11.7637 65.5566 11.8867 65.7129 11.9805C65.8652 12.0742 66.0352 12.1406 66.2227 12.1797C66.4102 12.2188 66.5957 12.2383 66.7793 12.2383C67.0684 12.2383 67.3203 12.2051 67.5352 12.1387C67.75 12.0684 67.918 11.9727 68.0391 11.8516C68.1133 11.7773 68.1699 11.6953 68.209 11.6055C68.248 11.5156 68.2676 11.4199 68.2676 11.3184ZM75.4746 11.3184C75.4746 11.1895 75.4492 11.0742 75.3984 10.9727C75.3477 10.8672 75.2617 10.7715 75.1406 10.6855C75.0195 10.5996 74.8594 10.5215 74.6602 10.4512C74.4609 10.377 74.2129 10.3105 73.916 10.252C73.5527 10.1777 73.2207 10.0879 72.9199 9.98242C72.623 9.87695 72.3691 9.75 72.1582 9.60156C71.9434 9.45703 71.7773 9.28711 71.6602 9.0918C71.543 8.89258 71.4844 8.66211 71.4844 8.40039C71.4844 8.14258 71.5449 7.90234 71.666 7.67969C71.7871 7.45312 71.957 7.25586 72.1758 7.08789C72.3945 6.91992 72.6543 6.78711 72.9551 6.68945C73.2598 6.5918 73.5938 6.54297 73.957 6.54297C74.3477 6.54297 74.6992 6.59375 75.0117 6.69531C75.3242 6.79688 75.5898 6.9375 75.8086 7.11719C76.0273 7.29688 76.1953 7.50781 76.3125 7.75C76.4336 7.98828 76.4941 8.24609 76.4941 8.52344H75.4102C75.4102 8.38672 75.375 8.25391 75.3047 8.125C75.2344 7.99219 75.1367 7.875 75.0117 7.77344C74.8867 7.67188 74.7344 7.58984 74.5547 7.52734C74.3789 7.46484 74.1797 7.43359 73.957 7.43359C73.7266 7.43359 73.5234 7.45898 73.3477 7.50977C73.1758 7.56055 73.0332 7.62891 72.9199 7.71484C72.8027 7.80078 72.7148 7.90039 72.6562 8.01367C72.5977 8.12695 72.5684 8.24414 72.5684 8.36523C72.5684 8.49023 72.5918 8.60156 72.6387 8.69922C72.6855 8.79688 72.7676 8.88477 72.8848 8.96289C72.998 9.04102 73.1504 9.11133 73.3418 9.17383C73.5371 9.23633 73.7832 9.29688 74.0801 9.35547C74.4707 9.4375 74.8203 9.5332 75.1289 9.64258C75.4375 9.74805 75.6973 9.875 75.9082 10.0234C76.1191 10.1758 76.2793 10.3516 76.3887 10.5508C76.502 10.75 76.5586 10.9805 76.5586 11.2422C76.5586 11.5234 76.4941 11.7793 76.3652 12.0098C76.2402 12.2402 76.0645 12.4375 75.8379 12.6016C75.6113 12.7656 75.3398 12.8926 75.0234 12.9824C74.707 13.0723 74.3613 13.1172 73.9863 13.1172C73.5566 13.1172 73.1738 13.0605 72.8379 12.9473C72.502 12.8301 72.2188 12.6758 71.9883 12.4844C71.7539 12.2969 71.5742 12.0781 71.4492 11.8281C71.3281 11.5781 71.2676 11.3184 71.2676 11.0488H72.3516C72.3672 11.2715 72.4258 11.459 72.5273 11.6113C72.6328 11.7637 72.7637 11.8867 72.9199 11.9805C73.0723 12.0742 73.2422 12.1406 73.4297 12.1797C73.6172 12.2188 73.8027 12.2383 73.9863 12.2383C74.2754 12.2383 74.5273 12.2051 74.7422 12.1387C74.957 12.0684 75.125 11.9727 75.2461 11.8516C75.3203 11.7773 75.377 11.6953 75.416 11.6055C75.4551 11.5156 75.4746 11.4199 75.4746 11.3184ZM80.3555 12.2969C80.3555 12.0664 80.4258 11.8691 80.5664 11.7051C80.707 11.541 80.9199 11.459 81.2051 11.459C81.4863 11.459 81.6992 11.541 81.8438 11.7051C81.9922 11.8652 82.0664 12.0625 82.0664 12.2969C82.0664 12.5273 81.9922 12.7207 81.8438 12.877C81.6953 13.0332 81.4824 13.1113 81.2051 13.1113C80.9238 13.1113 80.7109 13.0332 80.5664 12.877C80.4258 12.7168 80.3555 12.5234 80.3555 12.2969ZM86.4082 6.66016H89.6074V13.041C89.6074 13.4473 89.5508 13.8066 89.4375 14.1191C89.3281 14.4316 89.168 14.6934 88.957 14.9043C88.7422 15.1191 88.4805 15.2812 88.1719 15.3906C87.8672 15.5039 87.5195 15.5605 87.1289 15.5605C87.0078 15.5605 86.8906 15.5586 86.7773 15.5547C86.6641 15.5508 86.5527 15.5449 86.4434 15.5371C86.3535 15.5293 86.2637 15.5176 86.1738 15.502C86.084 15.4902 85.9902 15.4766 85.8926 15.4609L85.9688 14.5703C86.0352 14.582 86.1191 14.5918 86.2207 14.5996C86.3223 14.6113 86.4258 14.6191 86.5312 14.623C86.6328 14.6309 86.7305 14.6348 86.8242 14.6348C86.9219 14.6387 86.998 14.6406 87.0527 14.6406C87.2559 14.6406 87.4473 14.6133 87.627 14.5586C87.8066 14.5078 87.9629 14.4199 88.0957 14.2949C88.2285 14.1699 88.332 14.0039 88.4062 13.7969C88.4844 13.5938 88.5234 13.3418 88.5234 13.041V7.60352H86.4082V6.66016ZM88.3711 4.99023C88.3711 4.81445 88.4238 4.66602 88.5293 4.54492C88.6348 4.41992 88.7969 4.35742 89.0156 4.35742C89.2344 4.35742 89.3984 4.41992 89.5078 4.54492C89.6172 4.66602 89.6719 4.81445 89.6719 4.99023C89.6719 5.16602 89.6172 5.31445 89.5078 5.43555C89.3984 5.55273 89.2344 5.61133 89.0156 5.61133C88.7969 5.61133 88.6348 5.55273 88.5293 5.43555C88.4238 5.31445 88.3711 5.16602 88.3711 4.99023ZM97.0957 11.3184C97.0957 11.1895 97.0703 11.0742 97.0195 10.9727C96.9688 10.8672 96.8828 10.7715 96.7617 10.6855C96.6406 10.5996 96.4805 10.5215 96.2812 10.4512C96.082 10.377 95.834 10.3105 95.5371 10.252C95.1738 10.1777 94.8418 10.0879 94.541 9.98242C94.2441 9.87695 93.9902 9.75 93.7793 9.60156C93.5645 9.45703 93.3984 9.28711 93.2812 9.0918C93.1641 8.89258 93.1055 8.66211 93.1055 8.40039C93.1055 8.14258 93.166 7.90234 93.2871 7.67969C93.4082 7.45312 93.5781 7.25586 93.7969 7.08789C94.0156 6.91992 94.2754 6.78711 94.5762 6.68945C94.8809 6.5918 95.2148 6.54297 95.5781 6.54297C95.9688 6.54297 96.3203 6.59375 96.6328 6.69531C96.9453 6.79688 97.2109 6.9375 97.4297 7.11719C97.6484 7.29688 97.8164 7.50781 97.9336 7.75C98.0547 7.98828 98.1152 8.24609 98.1152 8.52344H97.0312C97.0312 8.38672 96.9961 8.25391 96.9258 8.125C96.8555 7.99219 96.7578 7.875 96.6328 7.77344C96.5078 7.67188 96.3555 7.58984 96.1758 7.52734C96 7.46484 95.8008 7.43359 95.5781 7.43359C95.3477 7.43359 95.1445 7.45898 94.9688 7.50977C94.7969 7.56055 94.6543 7.62891 94.541 7.71484C94.4238 7.80078 94.3359 7.90039 94.2773 8.01367C94.2188 8.12695 94.1895 8.24414 94.1895 8.36523C94.1895 8.49023 94.2129 8.60156 94.2598 8.69922C94.3066 8.79688 94.3887 8.88477 94.5059 8.96289C94.6191 9.04102 94.7715 9.11133 94.9629 9.17383C95.1582 9.23633 95.4043 9.29688 95.7012 9.35547C96.0918 9.4375 96.4414 9.5332 96.75 9.64258C97.0586 9.74805 97.3184 9.875 97.5293 10.0234C97.7402 10.1758 97.9004 10.3516 98.0098 10.5508C98.123 10.75 98.1797 10.9805 98.1797 11.2422C98.1797 11.5234 98.1152 11.7793 97.9863 12.0098C97.8613 12.2402 97.6855 12.4375 97.459 12.6016C97.2324 12.7656 96.9609 12.8926 96.6445 12.9824C96.3281 13.0723 95.9824 13.1172 95.6074 13.1172C95.1777 13.1172 94.7949 13.0605 94.459 12.9473C94.123 12.8301 93.8398 12.6758 93.6094 12.4844C93.375 12.2969 93.1953 12.0781 93.0703 11.8281C92.9492 11.5781 92.8887 11.3184 92.8887 11.0488H93.9727C93.9883 11.2715 94.0469 11.459 94.1484 11.6113C94.2539 11.7637 94.3848 11.8867 94.541 11.9805C94.6934 12.0742 94.8633 12.1406 95.0508 12.1797C95.2383 12.2188 95.4238 12.2383 95.6074 12.2383C95.8965 12.2383 96.1484 12.2051 96.3633 12.1387C96.5781 12.0684 96.7461 11.9727 96.8672 11.8516C96.9414 11.7773 96.998 11.6953 97.0371 11.6055C97.0762 11.5156 97.0957 11.4199 97.0957 11.3184Z" fill="black"/>
</svg>
