<svg width="100" height="16" viewBox="0 0 100 16" fill="none" xmlns="http://www.w3.org/2000/svg">
<circle cx="7.5" cy="8" r="7.5" fill="#F7DF1D"/>
<path d="M32.0215 4.46875V10.4043C32.0137 10.6465 31.9707 10.877 31.8926 11.0957C31.8184 11.3105 31.7109 11.5 31.5703 11.6641C31.4258 11.8281 31.252 11.959 31.0488 12.0566C30.8457 12.1504 30.6152 12.1973 30.3574 12.1973C30.1074 12.1973 29.8809 12.1562 29.6777 12.0742C29.4785 11.9922 29.3066 11.875 29.1621 11.7227C29.0176 11.5742 28.9023 11.3984 28.8164 11.1953C28.7344 10.9922 28.6875 10.7715 28.6758 10.5332H27.5742C27.6094 10.9277 27.6992 11.2852 27.8438 11.6055C27.9883 11.9219 28.1816 12.1914 28.4238 12.4141C28.6621 12.6406 28.9434 12.8145 29.2676 12.9355C29.5957 13.0566 29.959 13.1172 30.3574 13.1172C30.752 13.1172 31.1152 13.0508 31.4473 12.918C31.7832 12.7812 32.0742 12.5918 32.3203 12.3496C32.5664 12.1113 32.7598 11.8262 32.9004 11.4941C33.0449 11.1621 33.1211 10.7988 33.1289 10.4043V4.46875H32.0215ZM39.3926 13H40.5234V12.9062C40.4531 12.7305 40.3984 12.5254 40.3594 12.291C40.3203 12.0527 40.3008 11.8281 40.3008 11.6172V8.66992C40.3008 8.31445 40.2363 8.00391 40.1074 7.73828C39.9785 7.47266 39.8027 7.25 39.5801 7.07031C39.3535 6.89453 39.0859 6.76367 38.7773 6.67773C38.4688 6.58789 38.1348 6.54297 37.7754 6.54297C37.3809 6.54297 37.0273 6.59766 36.7148 6.70703C36.4062 6.81641 36.1445 6.95898 35.9297 7.13477C35.7109 7.31445 35.543 7.51562 35.4258 7.73828C35.3125 7.96094 35.2539 8.1875 35.25 8.41797H36.3398C36.3398 8.28516 36.3711 8.1582 36.4336 8.03711C36.5 7.91211 36.5918 7.80469 36.709 7.71484C36.8262 7.625 36.9688 7.55273 37.1367 7.49805C37.3086 7.44336 37.502 7.41602 37.7168 7.41602C37.9473 7.41602 38.1543 7.44531 38.3379 7.50391C38.5254 7.5625 38.6836 7.64453 38.8125 7.75C38.9414 7.85938 39.041 7.99023 39.1113 8.14258C39.1816 8.29492 39.2168 8.4668 39.2168 8.6582V9.15625H38.0332C37.5918 9.15625 37.1914 9.19922 36.832 9.28516C36.4766 9.37109 36.1719 9.5 35.918 9.67188C35.6641 9.84766 35.4668 10.0664 35.3262 10.3281C35.1895 10.5898 35.1211 10.8945 35.1211 11.2422C35.1211 11.5078 35.1719 11.7559 35.2734 11.9863C35.3789 12.2129 35.5273 12.4082 35.7188 12.5723C35.9062 12.7402 36.1348 12.873 36.4043 12.9707C36.6777 13.0684 36.9824 13.1172 37.3184 13.1172C37.5254 13.1172 37.7207 13.0957 37.9043 13.0527C38.0879 13.0098 38.2617 12.9512 38.4258 12.877C38.5859 12.8027 38.7324 12.7168 38.8652 12.6191C39.002 12.5215 39.125 12.418 39.2344 12.3086C39.2461 12.4414 39.2637 12.5703 39.2871 12.6953C39.3145 12.8164 39.3496 12.918 39.3926 13ZM37.4766 12.1738C37.2656 12.1738 37.0801 12.1465 36.9199 12.0918C36.7598 12.0371 36.627 11.9609 36.5215 11.8633C36.416 11.7695 36.3359 11.6562 36.2812 11.5234C36.2305 11.3906 36.2051 11.2461 36.2051 11.0898C36.2051 10.9258 36.2344 10.7793 36.293 10.6504C36.3555 10.5215 36.4453 10.4102 36.5625 10.3164C36.7266 10.1836 36.9473 10.0859 37.2246 10.0234C37.5059 9.95703 37.834 9.92383 38.209 9.92383H39.2168V11.207C39.1543 11.332 39.0684 11.4531 38.959 11.5703C38.8496 11.6836 38.7207 11.7852 38.5723 11.875C38.4199 11.9648 38.252 12.0371 38.0684 12.0918C37.8848 12.1465 37.6875 12.1738 37.4766 12.1738ZM44.5957 13H45.4219L48.0059 6.66016H46.8984L45.123 11.4414L45.0176 11.834L44.918 11.4414L43.1016 6.66016H41.9883L44.5957 13ZM53.8066 13H54.9375V12.9062C54.8672 12.7305 54.8125 12.5254 54.7734 12.291C54.7344 12.0527 54.7148 11.8281 54.7148 11.6172V8.66992C54.7148 8.31445 54.6504 8.00391 54.5215 7.73828C54.3926 7.47266 54.2168 7.25 53.9941 7.07031C53.7676 6.89453 53.5 6.76367 53.1914 6.67773C52.8828 6.58789 52.5488 6.54297 52.1895 6.54297C51.7949 6.54297 51.4414 6.59766 51.1289 6.70703C50.8203 6.81641 50.5586 6.95898 50.3438 7.13477C50.125 7.31445 49.957 7.51562 49.8398 7.73828C49.7266 7.96094 49.668 8.1875 49.6641 8.41797H50.7539C50.7539 8.28516 50.7852 8.1582 50.8477 8.03711C50.9141 7.91211 51.0059 7.80469 51.123 7.71484C51.2402 7.625 51.3828 7.55273 51.5508 7.49805C51.7227 7.44336 51.916 7.41602 52.1309 7.41602C52.3613 7.41602 52.5684 7.44531 52.752 7.50391C52.9395 7.5625 53.0977 7.64453 53.2266 7.75C53.3555 7.85938 53.4551 7.99023 53.5254 8.14258C53.5957 8.29492 53.6309 8.4668 53.6309 8.6582V9.15625H52.4473C52.0059 9.15625 51.6055 9.19922 51.2461 9.28516C50.8906 9.37109 50.5859 9.5 50.332 9.67188C50.0781 9.84766 49.8809 10.0664 49.7402 10.3281C49.6035 10.5898 49.5352 10.8945 49.5352 11.2422C49.5352 11.5078 49.5859 11.7559 49.6875 11.9863C49.793 12.2129 49.9414 12.4082 50.1328 12.5723C50.3203 12.7402 50.5488 12.873 50.8184 12.9707C51.0918 13.0684 51.3965 13.1172 51.7324 13.1172C51.9395 13.1172 52.1348 13.0957 52.3184 13.0527C52.502 13.0098 52.6758 12.9512 52.8398 12.877C53 12.8027 53.1465 12.7168 53.2793 12.6191C53.416 12.5215 53.5391 12.418 53.6484 12.3086C53.6602 12.4414 53.6777 12.5703 53.7012 12.6953C53.7285 12.8164 53.7637 12.918 53.8066 13ZM51.8906 12.1738C51.6797 12.1738 51.4941 12.1465 51.334 12.0918C51.1738 12.0371 51.041 11.9609 50.9355 11.8633C50.8301 11.7695 50.75 11.6562 50.6953 11.5234C50.6445 11.3906 50.6191 11.2461 50.6191 11.0898C50.6191 10.9258 50.6484 10.7793 50.707 10.6504C50.7695 10.5215 50.8594 10.4102 50.9766 10.3164C51.1406 10.1836 51.3613 10.0859 51.6387 10.0234C51.9199 9.95703 52.248 9.92383 52.623 9.92383H53.6309V11.207C53.5684 11.332 53.4824 11.4531 53.373 11.5703C53.2637 11.6836 53.1348 11.7852 52.9863 11.875C52.834 11.9648 52.666 12.0371 52.4824 12.0918C52.2988 12.1465 52.1016 12.1738 51.8906 12.1738ZM61.3125 10.8438C61.3125 11.0781 61.2617 11.2812 61.1602 11.4531C61.0586 11.6211 60.9277 11.7598 60.7676 11.8691C60.6074 11.9824 60.4238 12.0664 60.2168 12.1211C60.0137 12.1719 59.8066 12.1973 59.5957 12.1973C59.3301 12.1973 59.084 12.1621 58.8574 12.0918C58.6348 12.0176 58.4375 11.9082 58.2656 11.7637C58.0938 11.623 57.9531 11.4512 57.8438 11.248C57.7344 11.041 57.6621 10.8047 57.627 10.5391H56.5195C56.5312 10.9062 56.6113 11.2402 56.7598 11.541C56.9121 11.8379 57.1172 12.0977 57.375 12.3203C57.6641 12.5781 58.0039 12.7754 58.3945 12.9121C58.7891 13.0488 59.1895 13.1172 59.5957 13.1172C59.9355 13.1172 60.2754 13.0703 60.6152 12.9766C60.9551 12.8789 61.2598 12.7344 61.5293 12.543C61.7988 12.3555 62.0176 12.1191 62.1855 11.834C62.3574 11.5488 62.4434 11.2148 62.4434 10.832C62.4434 10.4531 62.3633 10.1191 62.2031 9.83008C62.0469 9.54102 61.8398 9.29688 61.582 9.09766C61.3203 8.88281 61.0312 8.70703 60.7148 8.57031C60.3984 8.42969 60.082 8.31055 59.7656 8.21289C59.5742 8.1543 59.3691 8.08594 59.1504 8.00781C58.9355 7.92969 58.7363 7.83203 58.5527 7.71484C58.3652 7.59766 58.2109 7.45508 58.0898 7.28711C57.9688 7.11523 57.9062 6.90625 57.9023 6.66016C57.9023 6.43359 57.9473 6.23438 58.0371 6.0625C58.1309 5.89062 58.2559 5.74609 58.4121 5.62891C58.5645 5.51172 58.7383 5.42383 58.9336 5.36523C59.1328 5.30664 59.3359 5.27734 59.543 5.27734C59.8008 5.27734 60.0312 5.31836 60.2344 5.40039C60.4414 5.47852 60.6191 5.58984 60.7676 5.73438C60.916 5.87891 61.0352 6.05273 61.125 6.25586C61.2148 6.45508 61.2754 6.67773 61.3066 6.92383H62.4199C62.4121 6.5332 62.3281 6.17969 62.168 5.86328C62.0078 5.54688 61.7949 5.27734 61.5293 5.05469C61.2637 4.83203 60.959 4.66016 60.6152 4.53906C60.2715 4.41406 59.9141 4.35156 59.543 4.35156C59.207 4.35156 58.873 4.4043 58.541 4.50977C58.209 4.61133 57.9121 4.76172 57.6504 4.96094C57.3887 5.16016 57.1758 5.4043 57.0117 5.69336C56.8516 5.98242 56.7715 6.31055 56.7715 6.67773C56.7715 7.04492 56.8516 7.36523 57.0117 7.63867C57.1758 7.9082 57.3867 8.14258 57.6445 8.3418C57.8984 8.53711 58.1797 8.70508 58.4883 8.8457C58.8008 8.98242 59.1074 9.09961 59.4082 9.19727C59.6152 9.26367 59.8301 9.33789 60.0527 9.41992C60.2793 9.50195 60.4863 9.60352 60.6738 9.72461C60.8613 9.84961 61.0137 10.002 61.1309 10.1816C61.252 10.3613 61.3125 10.582 61.3125 10.8438ZM66.7559 12.2383C66.416 12.2383 66.1309 12.1719 65.9004 12.0391C65.6738 11.9023 65.4922 11.7246 65.3555 11.5059C65.2148 11.291 65.1133 11.0488 65.0508 10.7793C64.9922 10.5059 64.9629 10.2305 64.9629 9.95312V9.70703C64.9629 9.43359 64.9922 9.16211 65.0508 8.89258C65.1133 8.62305 65.2148 8.37891 65.3555 8.16016C65.4961 7.94531 65.6797 7.77148 65.9062 7.63867C66.1367 7.50195 66.4199 7.43359 66.7559 7.43359C66.9746 7.43359 67.1777 7.4707 67.3652 7.54492C67.5566 7.61914 67.7207 7.7207 67.8574 7.84961C67.9941 7.97852 68.1016 8.12891 68.1797 8.30078C68.2617 8.46875 68.3047 8.64844 68.3086 8.83984H69.334C69.334 8.51953 69.2695 8.21875 69.1406 7.9375C69.0117 7.65625 68.834 7.41211 68.6074 7.20508C68.377 7.00195 68.1035 6.8418 67.7871 6.72461C67.4746 6.60352 67.1309 6.54297 66.7559 6.54297C66.2754 6.54297 65.8555 6.62891 65.4961 6.80078C65.1367 6.97266 64.8379 7.20312 64.5996 7.49219C64.3574 7.78516 64.1758 8.12305 64.0547 8.50586C63.9336 8.88867 63.873 9.28906 63.873 9.70703V9.95312C63.873 10.375 63.9336 10.7773 64.0547 11.1602C64.1758 11.5391 64.3574 11.873 64.5996 12.1621C64.8379 12.4551 65.1367 12.6875 65.4961 12.8594C65.8555 13.0312 66.2754 13.1172 66.7559 13.1172C67.0918 13.1172 67.4141 13.0605 67.7227 12.9473C68.0312 12.8301 68.3047 12.6738 68.543 12.4785C68.7812 12.2871 68.9707 12.0645 69.1113 11.8105C69.2559 11.5527 69.3301 11.2832 69.334 11.002H68.3086C68.3047 11.1777 68.2578 11.3418 68.168 11.4941C68.082 11.6426 67.9668 11.7715 67.8223 11.8809C67.6777 11.9941 67.5117 12.082 67.3242 12.1445C67.1406 12.207 66.9512 12.2383 66.7559 12.2383ZM75.416 6.54297C74.9551 6.54297 74.543 6.64453 74.1797 6.84766C73.8203 7.04688 73.5117 7.32031 73.2539 7.66797L73.248 7.50977L73.2012 6.66016H72.1699V13H73.2598V8.93359C73.3301 8.73828 73.418 8.5625 73.5234 8.40625C73.6328 8.24609 73.7598 8.11133 73.9043 8.00195C74.0645 7.87695 74.252 7.7832 74.4668 7.7207C74.6816 7.6543 74.9219 7.62109 75.1875 7.62109C75.3945 7.62109 75.5918 7.63281 75.7793 7.65625C75.9707 7.67578 76.1719 7.70898 76.3828 7.75586L76.5293 6.69531C76.4199 6.64844 76.2559 6.61133 76.0371 6.58398C75.8223 6.55664 75.6152 6.54297 75.416 6.54297ZM78.6387 6.66016V7.60352H80.7949V12.0625H78.6387V13H83.9473V12.0625H81.8789V6.66016H78.6387ZM80.6543 4.99609C80.6543 5.17188 80.707 5.31836 80.8125 5.43555C80.9219 5.55273 81.0859 5.61133 81.3047 5.61133C81.5195 5.61133 81.6816 5.55273 81.791 5.43555C81.9004 5.31836 81.9551 5.17188 81.9551 4.99609C81.9551 4.89844 81.9395 4.80859 81.9082 4.72656C81.877 4.64453 81.8301 4.57617 81.7676 4.52148C81.7168 4.4707 81.6523 4.43164 81.5742 4.4043C81.4961 4.37305 81.4062 4.35742 81.3047 4.35742C81.2031 4.35742 81.1113 4.37305 81.0293 4.4043C80.9512 4.43164 80.8867 4.4707 80.8359 4.52148C80.7734 4.58008 80.7266 4.65039 80.6953 4.73242C80.668 4.81445 80.6543 4.90234 80.6543 4.99609ZM85.6699 15.4375H86.7539V12.3906C86.832 12.4766 86.916 12.5566 87.0059 12.6309C87.0957 12.7012 87.1914 12.7656 87.293 12.8242C87.4609 12.918 87.6484 12.9902 87.8555 13.041C88.0664 13.0918 88.293 13.1172 88.5352 13.1172C88.9336 13.1172 89.2871 13.0352 89.5957 12.8711C89.9082 12.707 90.1699 12.4805 90.3809 12.1914C90.5918 11.9023 90.752 11.5625 90.8613 11.1719C90.9707 10.7773 91.0254 10.3535 91.0254 9.90039V9.77734C91.0254 9.30469 90.9707 8.87109 90.8613 8.47656C90.752 8.07812 90.5918 7.73633 90.3809 7.45117C90.1699 7.16602 89.9082 6.94336 89.5957 6.7832C89.2832 6.62305 88.9238 6.54297 88.5176 6.54297C88.2871 6.54297 88.0703 6.56836 87.8672 6.61914C87.668 6.66602 87.4863 6.73633 87.3223 6.83008C87.2051 6.89258 87.0957 6.96875 86.9941 7.05859C86.8926 7.14453 86.7988 7.24219 86.7129 7.35156L86.6602 6.66016H85.6699V15.4375ZM89.9414 9.77734V9.90039C89.9414 10.209 89.9062 10.5039 89.8359 10.7852C89.7695 11.0664 89.666 11.3145 89.5254 11.5293C89.3848 11.7441 89.2051 11.916 88.9863 12.0449C88.7676 12.1699 88.5078 12.2324 88.207 12.2324C88.0195 12.2324 87.8477 12.209 87.6914 12.1621C87.5391 12.1152 87.4004 12.0508 87.2754 11.9688C87.166 11.8984 87.0684 11.8125 86.9824 11.7109C86.8965 11.6094 86.8203 11.5 86.7539 11.3828V8.33008C86.8281 8.19727 86.9141 8.07617 87.0117 7.9668C87.1094 7.85742 87.2207 7.76562 87.3457 7.69141C87.459 7.61719 87.5859 7.56055 87.7266 7.52148C87.8711 7.48242 88.0273 7.46289 88.1953 7.46289C88.5 7.46289 88.7617 7.52539 88.9805 7.65039C89.1992 7.77539 89.3809 7.94336 89.5254 8.1543C89.666 8.36914 89.7695 8.61719 89.8359 8.89844C89.9062 9.17578 89.9414 9.46875 89.9414 9.77734ZM95.4492 5.125H94.3594V6.66016H92.6953V7.49805H94.3594V10.9434C94.3594 11.334 94.4102 11.668 94.5117 11.9453C94.6172 12.2188 94.7598 12.4414 94.9395 12.6133C95.1191 12.7891 95.3301 12.918 95.5723 13C95.8184 13.0781 96.082 13.1172 96.3633 13.1172C96.5312 13.1172 96.6992 13.1094 96.8672 13.0938C97.0391 13.0781 97.2012 13.0547 97.3535 13.0234C97.5059 12.9961 97.6465 12.9629 97.7754 12.9238C97.9043 12.8809 98.0137 12.832 98.1035 12.7773L97.9512 12.0098C97.8848 12.0254 97.7988 12.0449 97.6934 12.0684C97.5918 12.0879 97.4824 12.1074 97.3652 12.127C97.2441 12.1465 97.1211 12.1641 96.9961 12.1797C96.8711 12.1914 96.75 12.1973 96.6328 12.1973C96.4727 12.1973 96.3203 12.1777 96.1758 12.1387C96.0352 12.0996 95.9102 12.0312 95.8008 11.9336C95.6914 11.8398 95.6055 11.7129 95.543 11.5527C95.4805 11.3926 95.4492 11.1895 95.4492 10.9434V7.49805H97.8633V6.66016H95.4492V5.125Z" fill="black"/>
</svg>
