<svg width="56" height="16" viewBox="0 0 56 16" fill="none" xmlns="http://www.w3.org/2000/svg">
<circle cx="7.5" cy="8" r="7.5" fill="#E44E26"/>
<path d="M33.3691 13V4.46875H32.3438V8.13672H28.8457V4.46875H27.8262V13H28.8457V9.05664H32.3438V13H33.3691ZM40.9805 5.39453V4.46875H34.6523V5.39453H37.2891V13H38.3438V5.39453H40.9805ZM43.623 4.46875H42.2812V13H43.3359V9.5957L43.248 6.15625L44.6953 10.627H45.3164L46.8926 6.0332L46.8047 9.5957V13H47.8594V4.46875H46.5117L45.0117 8.73438L43.623 4.46875ZM50.8652 12.0801V4.46875H49.7812V13H55.0371V12.0801H50.8652Z" fill="black"/>
</svg>
