<svg width="104" height="24" viewBox="0 0 104 24" fill="none" xmlns="http://www.w3.org/2000/svg">
<g filter="url(#filter0_d_103_15)">
<circle cx="11.5" cy="8" r="7.5" fill="#F7DF1D"/>
</g>
<path d="M36.0215 4.46875V10.4043C36.0137 10.6465 35.9707 10.877 35.8926 11.0957C35.8184 11.3105 35.7109 11.5 35.5703 11.6641C35.4258 11.8281 35.252 11.959 35.0488 12.0566C34.8457 12.1504 34.6152 12.1973 34.3574 12.1973C34.1074 12.1973 33.8809 12.1562 33.6777 12.0742C33.4785 11.9922 33.3066 11.875 33.1621 11.7227C33.0176 11.5742 32.9023 11.3984 32.8164 11.1953C32.7344 10.9922 32.6875 10.7715 32.6758 10.5332H31.5742C31.6094 10.9277 31.6992 11.2852 31.8438 11.6055C31.9883 11.9219 32.1816 12.1914 32.4238 12.4141C32.6621 12.6406 32.9434 12.8145 33.2676 12.9355C33.5957 13.0566 33.959 13.1172 34.3574 13.1172C34.752 13.1172 35.1152 13.0508 35.4473 12.918C35.7832 12.7812 36.0742 12.5918 36.3203 12.3496C36.5664 12.1113 36.7598 11.8262 36.9004 11.4941C37.0449 11.1621 37.1211 10.7988 37.1289 10.4043V4.46875H36.0215ZM43.3926 13H44.5234V12.9062C44.4531 12.7305 44.3984 12.5254 44.3594 12.291C44.3203 12.0527 44.3008 11.8281 44.3008 11.6172V8.66992C44.3008 8.31445 44.2363 8.00391 44.1074 7.73828C43.9785 7.47266 43.8027 7.25 43.5801 7.07031C43.3535 6.89453 43.0859 6.76367 42.7773 6.67773C42.4688 6.58789 42.1348 6.54297 41.7754 6.54297C41.3809 6.54297 41.0273 6.59766 40.7148 6.70703C40.4062 6.81641 40.1445 6.95898 39.9297 7.13477C39.7109 7.31445 39.543 7.51562 39.4258 7.73828C39.3125 7.96094 39.2539 8.1875 39.25 8.41797H40.3398C40.3398 8.28516 40.3711 8.1582 40.4336 8.03711C40.5 7.91211 40.5918 7.80469 40.709 7.71484C40.8262 7.625 40.9688 7.55273 41.1367 7.49805C41.3086 7.44336 41.502 7.41602 41.7168 7.41602C41.9473 7.41602 42.1543 7.44531 42.3379 7.50391C42.5254 7.5625 42.6836 7.64453 42.8125 7.75C42.9414 7.85938 43.041 7.99023 43.1113 8.14258C43.1816 8.29492 43.2168 8.4668 43.2168 8.6582V9.15625H42.0332C41.5918 9.15625 41.1914 9.19922 40.832 9.28516C40.4766 9.37109 40.1719 9.5 39.918 9.67188C39.6641 9.84766 39.4668 10.0664 39.3262 10.3281C39.1895 10.5898 39.1211 10.8945 39.1211 11.2422C39.1211 11.5078 39.1719 11.7559 39.2734 11.9863C39.3789 12.2129 39.5273 12.4082 39.7188 12.5723C39.9062 12.7402 40.1348 12.873 40.4043 12.9707C40.6777 13.0684 40.9824 13.1172 41.3184 13.1172C41.5254 13.1172 41.7207 13.0957 41.9043 13.0527C42.0879 13.0098 42.2617 12.9512 42.4258 12.877C42.5859 12.8027 42.7324 12.7168 42.8652 12.6191C43.002 12.5215 43.125 12.418 43.2344 12.3086C43.2461 12.4414 43.2637 12.5703 43.2871 12.6953C43.3145 12.8164 43.3496 12.918 43.3926 13ZM41.4766 12.1738C41.2656 12.1738 41.0801 12.1465 40.9199 12.0918C40.7598 12.0371 40.627 11.9609 40.5215 11.8633C40.416 11.7695 40.3359 11.6562 40.2812 11.5234C40.2305 11.3906 40.2051 11.2461 40.2051 11.0898C40.2051 10.9258 40.2344 10.7793 40.293 10.6504C40.3555 10.5215 40.4453 10.4102 40.5625 10.3164C40.7266 10.1836 40.9473 10.0859 41.2246 10.0234C41.5059 9.95703 41.834 9.92383 42.209 9.92383H43.2168V11.207C43.1543 11.332 43.0684 11.4531 42.959 11.5703C42.8496 11.6836 42.7207 11.7852 42.5723 11.875C42.4199 11.9648 42.252 12.0371 42.0684 12.0918C41.8848 12.1465 41.6875 12.1738 41.4766 12.1738ZM48.5957 13H49.4219L52.0059 6.66016H50.8984L49.123 11.4414L49.0176 11.834L48.918 11.4414L47.1016 6.66016H45.9883L48.5957 13ZM57.8066 13H58.9375V12.9062C58.8672 12.7305 58.8125 12.5254 58.7734 12.291C58.7344 12.0527 58.7148 11.8281 58.7148 11.6172V8.66992C58.7148 8.31445 58.6504 8.00391 58.5215 7.73828C58.3926 7.47266 58.2168 7.25 57.9941 7.07031C57.7676 6.89453 57.5 6.76367 57.1914 6.67773C56.8828 6.58789 56.5488 6.54297 56.1895 6.54297C55.7949 6.54297 55.4414 6.59766 55.1289 6.70703C54.8203 6.81641 54.5586 6.95898 54.3438 7.13477C54.125 7.31445 53.957 7.51562 53.8398 7.73828C53.7266 7.96094 53.668 8.1875 53.6641 8.41797H54.7539C54.7539 8.28516 54.7852 8.1582 54.8477 8.03711C54.9141 7.91211 55.0059 7.80469 55.123 7.71484C55.2402 7.625 55.3828 7.55273 55.5508 7.49805C55.7227 7.44336 55.916 7.41602 56.1309 7.41602C56.3613 7.41602 56.5684 7.44531 56.752 7.50391C56.9395 7.5625 57.0977 7.64453 57.2266 7.75C57.3555 7.85938 57.4551 7.99023 57.5254 8.14258C57.5957 8.29492 57.6309 8.4668 57.6309 8.6582V9.15625H56.4473C56.0059 9.15625 55.6055 9.19922 55.2461 9.28516C54.8906 9.37109 54.5859 9.5 54.332 9.67188C54.0781 9.84766 53.8809 10.0664 53.7402 10.3281C53.6035 10.5898 53.5352 10.8945 53.5352 11.2422C53.5352 11.5078 53.5859 11.7559 53.6875 11.9863C53.793 12.2129 53.9414 12.4082 54.1328 12.5723C54.3203 12.7402 54.5488 12.873 54.8184 12.9707C55.0918 13.0684 55.3965 13.1172 55.7324 13.1172C55.9395 13.1172 56.1348 13.0957 56.3184 13.0527C56.502 13.0098 56.6758 12.9512 56.8398 12.877C57 12.8027 57.1465 12.7168 57.2793 12.6191C57.416 12.5215 57.5391 12.418 57.6484 12.3086C57.6602 12.4414 57.6777 12.5703 57.7012 12.6953C57.7285 12.8164 57.7637 12.918 57.8066 13ZM55.8906 12.1738C55.6797 12.1738 55.4941 12.1465 55.334 12.0918C55.1738 12.0371 55.041 11.9609 54.9355 11.8633C54.8301 11.7695 54.75 11.6562 54.6953 11.5234C54.6445 11.3906 54.6191 11.2461 54.6191 11.0898C54.6191 10.9258 54.6484 10.7793 54.707 10.6504C54.7695 10.5215 54.8594 10.4102 54.9766 10.3164C55.1406 10.1836 55.3613 10.0859 55.6387 10.0234C55.9199 9.95703 56.248 9.92383 56.623 9.92383H57.6309V11.207C57.5684 11.332 57.4824 11.4531 57.373 11.5703C57.2637 11.6836 57.1348 11.7852 56.9863 11.875C56.834 11.9648 56.666 12.0371 56.4824 12.0918C56.2988 12.1465 56.1016 12.1738 55.8906 12.1738ZM65.3125 10.8438C65.3125 11.0781 65.2617 11.2812 65.1602 11.4531C65.0586 11.6211 64.9277 11.7598 64.7676 11.8691C64.6074 11.9824 64.4238 12.0664 64.2168 12.1211C64.0137 12.1719 63.8066 12.1973 63.5957 12.1973C63.3301 12.1973 63.084 12.1621 62.8574 12.0918C62.6348 12.0176 62.4375 11.9082 62.2656 11.7637C62.0938 11.623 61.9531 11.4512 61.8438 11.248C61.7344 11.041 61.6621 10.8047 61.627 10.5391H60.5195C60.5312 10.9062 60.6113 11.2402 60.7598 11.541C60.9121 11.8379 61.1172 12.0977 61.375 12.3203C61.6641 12.5781 62.0039 12.7754 62.3945 12.9121C62.7891 13.0488 63.1895 13.1172 63.5957 13.1172C63.9355 13.1172 64.2754 13.0703 64.6152 12.9766C64.9551 12.8789 65.2598 12.7344 65.5293 12.543C65.7988 12.3555 66.0176 12.1191 66.1855 11.834C66.3574 11.5488 66.4434 11.2148 66.4434 10.832C66.4434 10.4531 66.3633 10.1191 66.2031 9.83008C66.0469 9.54102 65.8398 9.29688 65.582 9.09766C65.3203 8.88281 65.0312 8.70703 64.7148 8.57031C64.3984 8.42969 64.082 8.31055 63.7656 8.21289C63.5742 8.1543 63.3691 8.08594 63.1504 8.00781C62.9355 7.92969 62.7363 7.83203 62.5527 7.71484C62.3652 7.59766 62.2109 7.45508 62.0898 7.28711C61.9688 7.11523 61.9062 6.90625 61.9023 6.66016C61.9023 6.43359 61.9473 6.23438 62.0371 6.0625C62.1309 5.89062 62.2559 5.74609 62.4121 5.62891C62.5645 5.51172 62.7383 5.42383 62.9336 5.36523C63.1328 5.30664 63.3359 5.27734 63.543 5.27734C63.8008 5.27734 64.0312 5.31836 64.2344 5.40039C64.4414 5.47852 64.6191 5.58984 64.7676 5.73438C64.916 5.87891 65.0352 6.05273 65.125 6.25586C65.2148 6.45508 65.2754 6.67773 65.3066 6.92383H66.4199C66.4121 6.5332 66.3281 6.17969 66.168 5.86328C66.0078 5.54688 65.7949 5.27734 65.5293 5.05469C65.2637 4.83203 64.959 4.66016 64.6152 4.53906C64.2715 4.41406 63.9141 4.35156 63.543 4.35156C63.207 4.35156 62.873 4.4043 62.541 4.50977C62.209 4.61133 61.9121 4.76172 61.6504 4.96094C61.3887 5.16016 61.1758 5.4043 61.0117 5.69336C60.8516 5.98242 60.7715 6.31055 60.7715 6.67773C60.7715 7.04492 60.8516 7.36523 61.0117 7.63867C61.1758 7.9082 61.3867 8.14258 61.6445 8.3418C61.8984 8.53711 62.1797 8.70508 62.4883 8.8457C62.8008 8.98242 63.1074 9.09961 63.4082 9.19727C63.6152 9.26367 63.8301 9.33789 64.0527 9.41992C64.2793 9.50195 64.4863 9.60352 64.6738 9.72461C64.8613 9.84961 65.0137 10.002 65.1309 10.1816C65.252 10.3613 65.3125 10.582 65.3125 10.8438ZM70.7559 12.2383C70.416 12.2383 70.1309 12.1719 69.9004 12.0391C69.6738 11.9023 69.4922 11.7246 69.3555 11.5059C69.2148 11.291 69.1133 11.0488 69.0508 10.7793C68.9922 10.5059 68.9629 10.2305 68.9629 9.95312V9.70703C68.9629 9.43359 68.9922 9.16211 69.0508 8.89258C69.1133 8.62305 69.2148 8.37891 69.3555 8.16016C69.4961 7.94531 69.6797 7.77148 69.9062 7.63867C70.1367 7.50195 70.4199 7.43359 70.7559 7.43359C70.9746 7.43359 71.1777 7.4707 71.3652 7.54492C71.5566 7.61914 71.7207 7.7207 71.8574 7.84961C71.9941 7.97852 72.1016 8.12891 72.1797 8.30078C72.2617 8.46875 72.3047 8.64844 72.3086 8.83984H73.334C73.334 8.51953 73.2695 8.21875 73.1406 7.9375C73.0117 7.65625 72.834 7.41211 72.6074 7.20508C72.377 7.00195 72.1035 6.8418 71.7871 6.72461C71.4746 6.60352 71.1309 6.54297 70.7559 6.54297C70.2754 6.54297 69.8555 6.62891 69.4961 6.80078C69.1367 6.97266 68.8379 7.20312 68.5996 7.49219C68.3574 7.78516 68.1758 8.12305 68.0547 8.50586C67.9336 8.88867 67.873 9.28906 67.873 9.70703V9.95312C67.873 10.375 67.9336 10.7773 68.0547 11.1602C68.1758 11.5391 68.3574 11.873 68.5996 12.1621C68.8379 12.4551 69.1367 12.6875 69.4961 12.8594C69.8555 13.0312 70.2754 13.1172 70.7559 13.1172C71.0918 13.1172 71.4141 13.0605 71.7227 12.9473C72.0312 12.8301 72.3047 12.6738 72.543 12.4785C72.7812 12.2871 72.9707 12.0645 73.1113 11.8105C73.2559 11.5527 73.3301 11.2832 73.334 11.002H72.3086C72.3047 11.1777 72.2578 11.3418 72.168 11.4941C72.082 11.6426 71.9668 11.7715 71.8223 11.8809C71.6777 11.9941 71.5117 12.082 71.3242 12.1445C71.1406 12.207 70.9512 12.2383 70.7559 12.2383ZM79.416 6.54297C78.9551 6.54297 78.543 6.64453 78.1797 6.84766C77.8203 7.04688 77.5117 7.32031 77.2539 7.66797L77.248 7.50977L77.2012 6.66016H76.1699V13H77.2598V8.93359C77.3301 8.73828 77.418 8.5625 77.5234 8.40625C77.6328 8.24609 77.7598 8.11133 77.9043 8.00195C78.0645 7.87695 78.252 7.7832 78.4668 7.7207C78.6816 7.6543 78.9219 7.62109 79.1875 7.62109C79.3945 7.62109 79.5918 7.63281 79.7793 7.65625C79.9707 7.67578 80.1719 7.70898 80.3828 7.75586L80.5293 6.69531C80.4199 6.64844 80.2559 6.61133 80.0371 6.58398C79.8223 6.55664 79.6152 6.54297 79.416 6.54297ZM82.6387 6.66016V7.60352H84.7949V12.0625H82.6387V13H87.9473V12.0625H85.8789V6.66016H82.6387ZM84.6543 4.99609C84.6543 5.17188 84.707 5.31836 84.8125 5.43555C84.9219 5.55273 85.0859 5.61133 85.3047 5.61133C85.5195 5.61133 85.6816 5.55273 85.791 5.43555C85.9004 5.31836 85.9551 5.17188 85.9551 4.99609C85.9551 4.89844 85.9395 4.80859 85.9082 4.72656C85.877 4.64453 85.8301 4.57617 85.7676 4.52148C85.7168 4.4707 85.6523 4.43164 85.5742 4.4043C85.4961 4.37305 85.4062 4.35742 85.3047 4.35742C85.2031 4.35742 85.1113 4.37305 85.0293 4.4043C84.9512 4.43164 84.8867 4.4707 84.8359 4.52148C84.7734 4.58008 84.7266 4.65039 84.6953 4.73242C84.668 4.81445 84.6543 4.90234 84.6543 4.99609ZM89.6699 15.4375H90.7539V12.3906C90.832 12.4766 90.916 12.5566 91.0059 12.6309C91.0957 12.7012 91.1914 12.7656 91.293 12.8242C91.4609 12.918 91.6484 12.9902 91.8555 13.041C92.0664 13.0918 92.293 13.1172 92.5352 13.1172C92.9336 13.1172 93.2871 13.0352 93.5957 12.8711C93.9082 12.707 94.1699 12.4805 94.3809 12.1914C94.5918 11.9023 94.752 11.5625 94.8613 11.1719C94.9707 10.7773 95.0254 10.3535 95.0254 9.90039V9.77734C95.0254 9.30469 94.9707 8.87109 94.8613 8.47656C94.752 8.07812 94.5918 7.73633 94.3809 7.45117C94.1699 7.16602 93.9082 6.94336 93.5957 6.7832C93.2832 6.62305 92.9238 6.54297 92.5176 6.54297C92.2871 6.54297 92.0703 6.56836 91.8672 6.61914C91.668 6.66602 91.4863 6.73633 91.3223 6.83008C91.2051 6.89258 91.0957 6.96875 90.9941 7.05859C90.8926 7.14453 90.7988 7.24219 90.7129 7.35156L90.6602 6.66016H89.6699V15.4375ZM93.9414 9.77734V9.90039C93.9414 10.209 93.9062 10.5039 93.8359 10.7852C93.7695 11.0664 93.666 11.3145 93.5254 11.5293C93.3848 11.7441 93.2051 11.916 92.9863 12.0449C92.7676 12.1699 92.5078 12.2324 92.207 12.2324C92.0195 12.2324 91.8477 12.209 91.6914 12.1621C91.5391 12.1152 91.4004 12.0508 91.2754 11.9688C91.166 11.8984 91.0684 11.8125 90.9824 11.7109C90.8965 11.6094 90.8203 11.5 90.7539 11.3828V8.33008C90.8281 8.19727 90.9141 8.07617 91.0117 7.9668C91.1094 7.85742 91.2207 7.76562 91.3457 7.69141C91.459 7.61719 91.5859 7.56055 91.7266 7.52148C91.8711 7.48242 92.0273 7.46289 92.1953 7.46289C92.5 7.46289 92.7617 7.52539 92.9805 7.65039C93.1992 7.77539 93.3809 7.94336 93.5254 8.1543C93.666 8.36914 93.7695 8.61719 93.8359 8.89844C93.9062 9.17578 93.9414 9.46875 93.9414 9.77734ZM99.4492 5.125H98.3594V6.66016H96.6953V7.49805H98.3594V10.9434C98.3594 11.334 98.4102 11.668 98.5117 11.9453C98.6172 12.2188 98.7598 12.4414 98.9395 12.6133C99.1191 12.7891 99.3301 12.918 99.5723 13C99.8184 13.0781 100.082 13.1172 100.363 13.1172C100.531 13.1172 100.699 13.1094 100.867 13.0938C101.039 13.0781 101.201 13.0547 101.354 13.0234C101.506 12.9961 101.646 12.9629 101.775 12.9238C101.904 12.8809 102.014 12.832 102.104 12.7773L101.951 12.0098C101.885 12.0254 101.799 12.0449 101.693 12.0684C101.592 12.0879 101.482 12.1074 101.365 12.127C101.244 12.1465 101.121 12.1641 100.996 12.1797C100.871 12.1914 100.75 12.1973 100.633 12.1973C100.473 12.1973 100.32 12.1777 100.176 12.1387C100.035 12.0996 99.9102 12.0312 99.8008 11.9336C99.6914 11.8398 99.6055 11.7129 99.543 11.5527C99.4805 11.3926 99.4492 11.1895 99.4492 10.9434V7.49805H101.863V6.66016H99.4492V5.125Z" fill="black"/>
<defs>
<filter id="filter0_d_103_15" x="0" y="0.5" width="23" height="23" filterUnits="userSpaceOnUse" color-interpolation-filters="sRGB">
<feFlood flood-opacity="0" result="BackgroundImageFix"/>
<feColorMatrix in="SourceAlpha" type="matrix" values="0 0 0 0 0 0 0 0 0 0 0 0 0 0 0 0 0 0 127 0" result="hardAlpha"/>
<feOffset dy="4"/>
<feGaussianBlur stdDeviation="2"/>
<feComposite in2="hardAlpha" operator="out"/>
<feColorMatrix type="matrix" values="0 0 0 0 0 0 0 0 0 0 0 0 0 0 0 0 0 0 0.25 0"/>
<feBlend mode="normal" in2="BackgroundImageFix" result="effect1_dropShadow_103_15"/>
<feBlend mode="normal" in="SourceGraphic" in2="effect1_dropShadow_103_15" result="shape"/>
</filter>
</defs>
</svg>
