<svg width="121" height="16" viewBox="0 0 121 16" fill="none" xmlns="http://www.w3.org/2000/svg">
<circle cx="7.5" cy="8" r="7.5" fill="#5BBEF5"/>
<path d="M29.2441 12.0801V4.46875H28.1602V13H33.416V12.0801H29.2441ZM34.9219 9.77148V9.90039C34.9219 10.3574 34.9883 10.7812 35.1211 11.1719C35.2539 11.5625 35.4453 11.9023 35.6953 12.1914C35.9414 12.4805 36.2422 12.707 36.5977 12.8711C36.957 13.0352 37.3613 13.1172 37.8105 13.1172C38.2559 13.1172 38.6562 13.0352 39.0117 12.8711C39.3672 12.707 39.6699 12.4805 39.9199 12.1914C40.166 11.9023 40.3555 11.5625 40.4883 11.1719C40.6211 10.7812 40.6875 10.3574 40.6875 9.90039V9.77148C40.6875 9.31445 40.6211 8.89062 40.4883 8.5C40.3555 8.10547 40.166 7.76367 39.9199 7.47461C39.6699 7.18555 39.3652 6.95898 39.0059 6.79492C38.6504 6.62695 38.248 6.54297 37.7988 6.54297C37.3535 6.54297 36.9531 6.62695 36.5977 6.79492C36.2422 6.95898 35.9414 7.18555 35.6953 7.47461C35.4453 7.76367 35.2539 8.10547 35.1211 8.5C34.9883 8.89062 34.9219 9.31445 34.9219 9.77148ZM36.0059 9.90039V9.77148C36.0059 9.46289 36.043 9.16797 36.1172 8.88672C36.1914 8.60156 36.3047 8.35156 36.457 8.13672C36.6055 7.92188 36.791 7.75195 37.0137 7.62695C37.2363 7.49805 37.498 7.43359 37.7988 7.43359C38.0996 7.43359 38.3613 7.49805 38.584 7.62695C38.8105 7.75195 39 7.92188 39.1523 8.13672C39.3008 8.35156 39.4121 8.60156 39.4863 8.88672C39.5645 9.16797 39.6035 9.46289 39.6035 9.77148V9.90039C39.6035 10.2129 39.5664 10.5117 39.4922 10.7969C39.418 11.0781 39.3066 11.3262 39.1582 11.541C39.0059 11.7559 38.8164 11.9258 38.5898 12.0508C38.3672 12.1758 38.1074 12.2383 37.8105 12.2383C37.5098 12.2383 37.2461 12.1758 37.0195 12.0508C36.793 11.9258 36.6055 11.7559 36.457 11.541C36.3047 11.3262 36.1914 11.0781 36.1172 10.7969C36.043 10.5117 36.0059 10.2129 36.0059 9.90039ZM45.1348 12.2383C44.7949 12.2383 44.5098 12.1719 44.2793 12.0391C44.0527 11.9023 43.8711 11.7246 43.7344 11.5059C43.5938 11.291 43.4922 11.0488 43.4297 10.7793C43.3711 10.5059 43.3418 10.2305 43.3418 9.95312V9.70703C43.3418 9.43359 43.3711 9.16211 43.4297 8.89258C43.4922 8.62305 43.5938 8.37891 43.7344 8.16016C43.875 7.94531 44.0586 7.77148 44.2852 7.63867C44.5156 7.50195 44.7988 7.43359 45.1348 7.43359C45.3535 7.43359 45.5566 7.4707 45.7441 7.54492C45.9355 7.61914 46.0996 7.7207 46.2363 7.84961C46.373 7.97852 46.4805 8.12891 46.5586 8.30078C46.6406 8.46875 46.6836 8.64844 46.6875 8.83984H47.7129C47.7129 8.51953 47.6484 8.21875 47.5195 7.9375C47.3906 7.65625 47.2129 7.41211 46.9863 7.20508C46.7559 7.00195 46.4824 6.8418 46.166 6.72461C45.8535 6.60352 45.5098 6.54297 45.1348 6.54297C44.6543 6.54297 44.2344 6.62891 43.875 6.80078C43.5156 6.97266 43.2168 7.20312 42.9785 7.49219C42.7363 7.78516 42.5547 8.12305 42.4336 8.50586C42.3125 8.88867 42.252 9.28906 42.252 9.70703V9.95312C42.252 10.375 42.3125 10.7773 42.4336 11.1602C42.5547 11.5391 42.7363 11.873 42.9785 12.1621C43.2168 12.4551 43.5156 12.6875 43.875 12.8594C44.2344 13.0312 44.6543 13.1172 45.1348 13.1172C45.4707 13.1172 45.793 13.0605 46.1016 12.9473C46.4102 12.8301 46.6836 12.6738 46.9219 12.4785C47.1602 12.2871 47.3496 12.0645 47.4902 11.8105C47.6348 11.5527 47.709 11.2832 47.7129 11.002H46.6875C46.6836 11.1777 46.6367 11.3418 46.5469 11.4941C46.4609 11.6426 46.3457 11.7715 46.2012 11.8809C46.0566 11.9941 45.8906 12.082 45.7031 12.1445C45.5195 12.207 45.3301 12.2383 45.1348 12.2383ZM53.8066 13H54.9375V12.9062C54.8672 12.7305 54.8125 12.5254 54.7734 12.291C54.7344 12.0527 54.7148 11.8281 54.7148 11.6172V8.66992C54.7148 8.31445 54.6504 8.00391 54.5215 7.73828C54.3926 7.47266 54.2168 7.25 53.9941 7.07031C53.7676 6.89453 53.5 6.76367 53.1914 6.67773C52.8828 6.58789 52.5488 6.54297 52.1895 6.54297C51.7949 6.54297 51.4414 6.59766 51.1289 6.70703C50.8203 6.81641 50.5586 6.95898 50.3438 7.13477C50.125 7.31445 49.957 7.51562 49.8398 7.73828C49.7266 7.96094 49.668 8.1875 49.6641 8.41797H50.7539C50.7539 8.28516 50.7852 8.1582 50.8477 8.03711C50.9141 7.91211 51.0059 7.80469 51.123 7.71484C51.2402 7.625 51.3828 7.55273 51.5508 7.49805C51.7227 7.44336 51.916 7.41602 52.1309 7.41602C52.3613 7.41602 52.5684 7.44531 52.752 7.50391C52.9395 7.5625 53.0977 7.64453 53.2266 7.75C53.3555 7.85938 53.4551 7.99023 53.5254 8.14258C53.5957 8.29492 53.6309 8.4668 53.6309 8.6582V9.15625H52.4473C52.0059 9.15625 51.6055 9.19922 51.2461 9.28516C50.8906 9.37109 50.5859 9.5 50.332 9.67188C50.0781 9.84766 49.8809 10.0664 49.7402 10.3281C49.6035 10.5898 49.5352 10.8945 49.5352 11.2422C49.5352 11.5078 49.5859 11.7559 49.6875 11.9863C49.793 12.2129 49.9414 12.4082 50.1328 12.5723C50.3203 12.7402 50.5488 12.873 50.8184 12.9707C51.0918 13.0684 51.3965 13.1172 51.7324 13.1172C51.9395 13.1172 52.1348 13.0957 52.3184 13.0527C52.502 13.0098 52.6758 12.9512 52.8398 12.877C53 12.8027 53.1465 12.7168 53.2793 12.6191C53.416 12.5215 53.5391 12.418 53.6484 12.3086C53.6602 12.4414 53.6777 12.5703 53.7012 12.6953C53.7285 12.8164 53.7637 12.918 53.8066 13ZM51.8906 12.1738C51.6797 12.1738 51.4941 12.1465 51.334 12.0918C51.1738 12.0371 51.041 11.9609 50.9355 11.8633C50.8301 11.7695 50.75 11.6562 50.6953 11.5234C50.6445 11.3906 50.6191 11.2461 50.6191 11.0898C50.6191 10.9258 50.6484 10.7793 50.707 10.6504C50.7695 10.5215 50.8594 10.4102 50.9766 10.3164C51.1406 10.1836 51.3613 10.0859 51.6387 10.0234C51.9199 9.95703 52.248 9.92383 52.623 9.92383H53.6309V11.207C53.5684 11.332 53.4824 11.4531 53.373 11.5703C53.2637 11.6836 53.1348 11.7852 52.9863 11.875C52.834 11.9648 52.666 12.0371 52.4824 12.0918C52.2988 12.1465 52.1016 12.1738 51.8906 12.1738ZM57.0176 4V4.94336H59.1738V12.0625H57.0176V13H62.3262V12.0625H60.2578V4H57.0176ZM75.7266 10.8438C75.7266 11.0781 75.6758 11.2812 75.5742 11.4531C75.4727 11.6211 75.3418 11.7598 75.1816 11.8691C75.0215 11.9824 74.8379 12.0664 74.6309 12.1211C74.4277 12.1719 74.2207 12.1973 74.0098 12.1973C73.7441 12.1973 73.498 12.1621 73.2715 12.0918C73.0488 12.0176 72.8516 11.9082 72.6797 11.7637C72.5078 11.623 72.3672 11.4512 72.2578 11.248C72.1484 11.041 72.0762 10.8047 72.041 10.5391H70.9336C70.9453 10.9062 71.0254 11.2402 71.1738 11.541C71.3262 11.8379 71.5312 12.0977 71.7891 12.3203C72.0781 12.5781 72.418 12.7754 72.8086 12.9121C73.2031 13.0488 73.6035 13.1172 74.0098 13.1172C74.3496 13.1172 74.6895 13.0703 75.0293 12.9766C75.3691 12.8789 75.6738 12.7344 75.9434 12.543C76.2129 12.3555 76.4316 12.1191 76.5996 11.834C76.7715 11.5488 76.8574 11.2148 76.8574 10.832C76.8574 10.4531 76.7773 10.1191 76.6172 9.83008C76.4609 9.54102 76.2539 9.29688 75.9961 9.09766C75.7344 8.88281 75.4453 8.70703 75.1289 8.57031C74.8125 8.42969 74.4961 8.31055 74.1797 8.21289C73.9883 8.1543 73.7832 8.08594 73.5645 8.00781C73.3496 7.92969 73.1504 7.83203 72.9668 7.71484C72.7793 7.59766 72.625 7.45508 72.5039 7.28711C72.3828 7.11523 72.3203 6.90625 72.3164 6.66016C72.3164 6.43359 72.3613 6.23438 72.4512 6.0625C72.5449 5.89062 72.6699 5.74609 72.8262 5.62891C72.9785 5.51172 73.1523 5.42383 73.3477 5.36523C73.5469 5.30664 73.75 5.27734 73.957 5.27734C74.2148 5.27734 74.4453 5.31836 74.6484 5.40039C74.8555 5.47852 75.0332 5.58984 75.1816 5.73438C75.3301 5.87891 75.4492 6.05273 75.5391 6.25586C75.6289 6.45508 75.6895 6.67773 75.7207 6.92383H76.834C76.8262 6.5332 76.7422 6.17969 76.582 5.86328C76.4219 5.54688 76.209 5.27734 75.9434 5.05469C75.6777 4.83203 75.373 4.66016 75.0293 4.53906C74.6855 4.41406 74.3281 4.35156 73.957 4.35156C73.6211 4.35156 73.2871 4.4043 72.9551 4.50977C72.623 4.61133 72.3262 4.76172 72.0645 4.96094C71.8027 5.16016 71.5898 5.4043 71.4258 5.69336C71.2656 5.98242 71.1855 6.31055 71.1855 6.67773C71.1855 7.04492 71.2656 7.36523 71.4258 7.63867C71.5898 7.9082 71.8008 8.14258 72.0586 8.3418C72.3125 8.53711 72.5938 8.70508 72.9023 8.8457C73.2148 8.98242 73.5215 9.09961 73.8223 9.19727C74.0293 9.26367 74.2441 9.33789 74.4668 9.41992C74.6934 9.50195 74.9004 9.60352 75.0879 9.72461C75.2754 9.84961 75.4277 10.002 75.5449 10.1816C75.666 10.3613 75.7266 10.582 75.7266 10.8438ZM81.0352 5.125H79.9453V6.66016H78.2812V7.49805H79.9453V10.9434C79.9453 11.334 79.9961 11.668 80.0977 11.9453C80.2031 12.2188 80.3457 12.4414 80.5254 12.6133C80.7051 12.7891 80.916 12.918 81.1582 13C81.4043 13.0781 81.668 13.1172 81.9492 13.1172C82.1172 13.1172 82.2852 13.1094 82.4531 13.0938C82.625 13.0781 82.7871 13.0547 82.9395 13.0234C83.0918 12.9961 83.2324 12.9629 83.3613 12.9238C83.4902 12.8809 83.5996 12.832 83.6895 12.7773L83.5371 12.0098C83.4707 12.0254 83.3848 12.0449 83.2793 12.0684C83.1777 12.0879 83.0684 12.1074 82.9512 12.127C82.8301 12.1465 82.707 12.1641 82.582 12.1797C82.457 12.1914 82.3359 12.1973 82.2188 12.1973C82.0586 12.1973 81.9062 12.1777 81.7617 12.1387C81.6211 12.0996 81.4961 12.0312 81.3867 11.9336C81.2773 11.8398 81.1914 11.7129 81.1289 11.5527C81.0664 11.3926 81.0352 11.1895 81.0352 10.9434V7.49805H83.4492V6.66016H81.0352V5.125ZM85.3711 9.77148V9.90039C85.3711 10.3574 85.4375 10.7812 85.5703 11.1719C85.7031 11.5625 85.8945 11.9023 86.1445 12.1914C86.3906 12.4805 86.6914 12.707 87.0469 12.8711C87.4062 13.0352 87.8105 13.1172 88.2598 13.1172C88.7051 13.1172 89.1055 13.0352 89.4609 12.8711C89.8164 12.707 90.1191 12.4805 90.3691 12.1914C90.6152 11.9023 90.8047 11.5625 90.9375 11.1719C91.0703 10.7812 91.1367 10.3574 91.1367 9.90039V9.77148C91.1367 9.31445 91.0703 8.89062 90.9375 8.5C90.8047 8.10547 90.6152 7.76367 90.3691 7.47461C90.1191 7.18555 89.8145 6.95898 89.4551 6.79492C89.0996 6.62695 88.6973 6.54297 88.248 6.54297C87.8027 6.54297 87.4023 6.62695 87.0469 6.79492C86.6914 6.95898 86.3906 7.18555 86.1445 7.47461C85.8945 7.76367 85.7031 8.10547 85.5703 8.5C85.4375 8.89062 85.3711 9.31445 85.3711 9.77148ZM86.4551 9.90039V9.77148C86.4551 9.46289 86.4922 9.16797 86.5664 8.88672C86.6406 8.60156 86.7539 8.35156 86.9062 8.13672C87.0547 7.92188 87.2402 7.75195 87.4629 7.62695C87.6855 7.49805 87.9473 7.43359 88.248 7.43359C88.5488 7.43359 88.8105 7.49805 89.0332 7.62695C89.2598 7.75195 89.4492 7.92188 89.6016 8.13672C89.75 8.35156 89.8613 8.60156 89.9355 8.88672C90.0137 9.16797 90.0527 9.46289 90.0527 9.77148V9.90039C90.0527 10.2129 90.0156 10.5117 89.9414 10.7969C89.8672 11.0781 89.7559 11.3262 89.6074 11.541C89.4551 11.7559 89.2656 11.9258 89.0391 12.0508C88.8164 12.1758 88.5566 12.2383 88.2598 12.2383C87.959 12.2383 87.6953 12.1758 87.4688 12.0508C87.2422 11.9258 87.0547 11.7559 86.9062 11.541C86.7539 11.3262 86.6406 11.0781 86.5664 10.7969C86.4922 10.5117 86.4551 10.2129 86.4551 9.90039ZM97.0371 6.54297C96.5762 6.54297 96.1641 6.64453 95.8008 6.84766C95.4414 7.04688 95.1328 7.32031 94.875 7.66797L94.8691 7.50977L94.8223 6.66016H93.791V13H94.8809V8.93359C94.9512 8.73828 95.0391 8.5625 95.1445 8.40625C95.2539 8.24609 95.3809 8.11133 95.5254 8.00195C95.6855 7.87695 95.873 7.7832 96.0879 7.7207C96.3027 7.6543 96.543 7.62109 96.8086 7.62109C97.0156 7.62109 97.2129 7.63281 97.4004 7.65625C97.5918 7.67578 97.793 7.70898 98.0039 7.75586L98.1504 6.69531C98.041 6.64844 97.877 6.61133 97.6582 6.58398C97.4434 6.55664 97.2363 6.54297 97.0371 6.54297ZM104.256 13H105.387V12.9062C105.316 12.7305 105.262 12.5254 105.223 12.291C105.184 12.0527 105.164 11.8281 105.164 11.6172V8.66992C105.164 8.31445 105.1 8.00391 104.971 7.73828C104.842 7.47266 104.666 7.25 104.443 7.07031C104.217 6.89453 103.949 6.76367 103.641 6.67773C103.332 6.58789 102.998 6.54297 102.639 6.54297C102.244 6.54297 101.891 6.59766 101.578 6.70703C101.27 6.81641 101.008 6.95898 100.793 7.13477C100.574 7.31445 100.406 7.51562 100.289 7.73828C100.176 7.96094 100.117 8.1875 100.113 8.41797H101.203C101.203 8.28516 101.234 8.1582 101.297 8.03711C101.363 7.91211 101.455 7.80469 101.572 7.71484C101.689 7.625 101.832 7.55273 102 7.49805C102.172 7.44336 102.365 7.41602 102.58 7.41602C102.811 7.41602 103.018 7.44531 103.201 7.50391C103.389 7.5625 103.547 7.64453 103.676 7.75C103.805 7.85938 103.904 7.99023 103.975 8.14258C104.045 8.29492 104.08 8.4668 104.08 8.6582V9.15625H102.896C102.455 9.15625 102.055 9.19922 101.695 9.28516C101.34 9.37109 101.035 9.5 100.781 9.67188C100.527 9.84766 100.33 10.0664 100.189 10.3281C100.053 10.5898 99.9844 10.8945 99.9844 11.2422C99.9844 11.5078 100.035 11.7559 100.137 11.9863C100.242 12.2129 100.391 12.4082 100.582 12.5723C100.77 12.7402 100.998 12.873 101.268 12.9707C101.541 13.0684 101.846 13.1172 102.182 13.1172C102.389 13.1172 102.584 13.0957 102.768 13.0527C102.951 13.0098 103.125 12.9512 103.289 12.877C103.449 12.8027 103.596 12.7168 103.729 12.6191C103.865 12.5215 103.988 12.418 104.098 12.3086C104.109 12.4414 104.127 12.5703 104.15 12.6953C104.178 12.8164 104.213 12.918 104.256 13ZM102.34 12.1738C102.129 12.1738 101.943 12.1465 101.783 12.0918C101.623 12.0371 101.49 11.9609 101.385 11.8633C101.279 11.7695 101.199 11.6562 101.145 11.5234C101.094 11.3906 101.068 11.2461 101.068 11.0898C101.068 10.9258 101.098 10.7793 101.156 10.6504C101.219 10.5215 101.309 10.4102 101.426 10.3164C101.59 10.1836 101.811 10.0859 102.088 10.0234C102.369 9.95703 102.697 9.92383 103.072 9.92383H104.08V11.207C104.018 11.332 103.932 11.4531 103.822 11.5703C103.713 11.6836 103.584 11.7852 103.436 11.875C103.283 11.9648 103.115 12.0371 102.932 12.0918C102.748 12.1465 102.551 12.1738 102.34 12.1738ZM107.098 9.77734V9.90039C107.098 10.3535 107.156 10.7773 107.273 11.1719C107.391 11.5625 107.559 11.9023 107.777 12.1914C107.992 12.4805 108.256 12.707 108.568 12.8711C108.881 13.0352 109.23 13.1172 109.617 13.1172C109.848 13.1172 110.062 13.0918 110.262 13.041C110.461 12.9941 110.643 12.9258 110.807 12.8359C110.912 12.7773 111.01 12.709 111.1 12.6309C111.193 12.5527 111.281 12.4668 111.363 12.373V12.918C111.363 13.1914 111.324 13.4336 111.246 13.6445C111.168 13.8555 111.057 14.0312 110.912 14.1719C110.764 14.3164 110.586 14.4258 110.379 14.5C110.172 14.5742 109.939 14.6113 109.682 14.6113C109.537 14.6113 109.393 14.5957 109.248 14.5645C109.104 14.5371 108.959 14.4902 108.814 14.4238C108.67 14.3574 108.527 14.2676 108.387 14.1543C108.246 14.0449 108.109 13.9102 107.977 13.75L107.414 14.4004C107.559 14.6074 107.73 14.7812 107.93 14.9219C108.133 15.0625 108.344 15.1738 108.562 15.2559C108.777 15.3418 108.99 15.4023 109.201 15.4375C109.412 15.4766 109.6 15.4961 109.764 15.4961C110.162 15.4961 110.525 15.4375 110.854 15.3203C111.182 15.2031 111.465 15.0312 111.703 14.8047C111.938 14.5781 112.119 14.3027 112.248 13.9785C112.381 13.6543 112.447 13.2832 112.447 12.8652V6.66016H111.463L111.41 7.35156C111.336 7.25781 111.256 7.17188 111.17 7.09375C111.088 7.01562 111 6.94727 110.906 6.88867C110.734 6.77539 110.541 6.68945 110.326 6.63086C110.115 6.57227 109.883 6.54297 109.629 6.54297C109.234 6.54297 108.881 6.62305 108.568 6.7832C108.256 6.94336 107.99 7.16602 107.771 7.45117C107.553 7.73633 107.385 8.07812 107.268 8.47656C107.154 8.87109 107.098 9.30469 107.098 9.77734ZM108.182 9.90039V9.77734C108.182 9.46875 108.213 9.17578 108.275 8.89844C108.342 8.61719 108.445 8.36914 108.586 8.1543C108.723 7.94336 108.898 7.77539 109.113 7.65039C109.332 7.52539 109.594 7.46289 109.898 7.46289C110.078 7.46289 110.242 7.48633 110.391 7.5332C110.539 7.57617 110.674 7.63672 110.795 7.71484C110.916 7.79688 111.023 7.89258 111.117 8.00195C111.211 8.11133 111.293 8.23242 111.363 8.36523V11.2715C111.293 11.4082 111.211 11.5332 111.117 11.6465C111.023 11.7598 110.918 11.8574 110.801 11.9395C110.68 12.0215 110.543 12.0859 110.391 12.1328C110.242 12.1758 110.074 12.1973 109.887 12.1973C109.586 12.1973 109.328 12.1367 109.113 12.0156C108.898 11.8906 108.723 11.7227 108.586 11.5117C108.445 11.3008 108.342 11.0566 108.275 10.7793C108.213 10.502 108.182 10.209 108.182 9.90039ZM117.305 13.1172C117.922 13.1172 118.439 12.9941 118.857 12.748C119.279 12.498 119.596 12.2129 119.807 11.8926L119.145 11.377C118.945 11.6348 118.695 11.8418 118.395 11.998C118.094 12.1543 117.75 12.2324 117.363 12.2324C117.07 12.2324 116.803 12.1777 116.561 12.0684C116.318 11.959 116.111 11.8086 115.939 11.6172C115.771 11.4375 115.639 11.2305 115.541 10.9961C115.447 10.7617 115.387 10.4902 115.359 10.1816V10.1406H119.889V9.6543C119.889 9.21289 119.832 8.80273 119.719 8.42383C119.609 8.04492 119.441 7.71484 119.215 7.43359C118.988 7.15625 118.703 6.93945 118.359 6.7832C118.02 6.62305 117.621 6.54297 117.164 6.54297C116.801 6.54297 116.445 6.61719 116.098 6.76562C115.754 6.91406 115.447 7.12695 115.178 7.4043C114.904 7.68555 114.686 8.0293 114.521 8.43555C114.357 8.83789 114.275 9.29492 114.275 9.80664V10.0527C114.275 10.4941 114.35 10.9023 114.498 11.2773C114.646 11.6523 114.854 11.9766 115.119 12.25C115.385 12.5234 115.703 12.7363 116.074 12.8887C116.449 13.041 116.859 13.1172 117.305 13.1172ZM117.164 7.43359C117.441 7.43359 117.68 7.48438 117.879 7.58594C118.082 7.6875 118.25 7.82031 118.383 7.98438C118.516 8.14844 118.619 8.34375 118.693 8.57031C118.768 8.79297 118.805 9.00195 118.805 9.19727V9.25H115.395C115.438 8.95703 115.512 8.69922 115.617 8.47656C115.727 8.25 115.859 8.05859 116.016 7.90234C116.172 7.75 116.348 7.63477 116.543 7.55664C116.738 7.47461 116.945 7.43359 117.164 7.43359Z" fill="black"/>
</svg>
