<svg width="78" height="16" viewBox="0 0 78 16" fill="none" xmlns="http://www.w3.org/2000/svg">
<circle cx="7.5" cy="8" r="7.5" fill="#599636"/>
<path d="M29.209 4.46875L30.5977 8.73438L32.0977 4.46875H33.4453V13H32.3906V9.5957L32.4785 6.0332L30.9023 10.627H30.2812L28.834 6.15625L28.9219 9.5957V13H27.8672V4.46875H29.209ZM34.9219 9.77148C34.9219 9.31445 34.9883 8.89062 35.1211 8.5C35.2539 8.10547 35.4453 7.76367 35.6953 7.47461C35.9414 7.18555 36.2422 6.95898 36.5977 6.79492C36.9531 6.62695 37.3535 6.54297 37.7988 6.54297C38.248 6.54297 38.6504 6.62695 39.0059 6.79492C39.3652 6.95898 39.6699 7.18555 39.9199 7.47461C40.166 7.76367 40.3555 8.10547 40.4883 8.5C40.6211 8.89062 40.6875 9.31445 40.6875 9.77148V9.90039C40.6875 10.3574 40.6211 10.7812 40.4883 11.1719C40.3555 11.5625 40.166 11.9023 39.9199 12.1914C39.6699 12.4805 39.3672 12.707 39.0117 12.8711C38.6562 13.0352 38.2559 13.1172 37.8105 13.1172C37.3613 13.1172 36.957 13.0352 36.5977 12.8711C36.2422 12.707 35.9414 12.4805 35.6953 12.1914C35.4453 11.9023 35.2539 11.5625 35.1211 11.1719C34.9883 10.7812 34.9219 10.3574 34.9219 9.90039V9.77148ZM36.0059 9.90039C36.0059 10.2129 36.043 10.5117 36.1172 10.7969C36.1914 11.0781 36.3047 11.3262 36.457 11.541C36.6055 11.7559 36.793 11.9258 37.0195 12.0508C37.2461 12.1758 37.5098 12.2383 37.8105 12.2383C38.1074 12.2383 38.3672 12.1758 38.5898 12.0508C38.8164 11.9258 39.0059 11.7559 39.1582 11.541C39.3066 11.3262 39.418 11.0781 39.4922 10.7969C39.5664 10.5117 39.6035 10.2129 39.6035 9.90039V9.77148C39.6035 9.46289 39.5645 9.16797 39.4863 8.88672C39.4121 8.60156 39.3008 8.35156 39.1523 8.13672C39 7.92188 38.8105 7.75195 38.584 7.62695C38.3613 7.49805 38.0996 7.43359 37.7988 7.43359C37.498 7.43359 37.2363 7.49805 37.0137 7.62695C36.791 7.75195 36.6055 7.92188 36.457 8.13672C36.3047 8.35156 36.1914 8.60156 36.1172 8.88672C36.043 9.16797 36.0059 9.46289 36.0059 9.77148V9.90039ZM42.4336 13V6.66016H43.4062L43.4824 7.59766C43.5762 7.46484 43.6777 7.34375 43.7871 7.23438C43.9004 7.12109 44.0195 7.02344 44.1445 6.94141C44.332 6.81641 44.5352 6.7207 44.7539 6.6543C44.9766 6.58398 45.2109 6.54688 45.457 6.54297C45.7891 6.54297 46.0898 6.58984 46.3594 6.68359C46.6328 6.77734 46.8652 6.92383 47.0566 7.12305C47.248 7.32227 47.3945 7.57617 47.4961 7.88477C47.6016 8.18945 47.6543 8.55273 47.6543 8.97461V13H46.5703V8.99805C46.5703 8.7168 46.5391 8.47852 46.4766 8.2832C46.4141 8.08789 46.3223 7.92969 46.2012 7.80859C46.0762 7.6875 45.9238 7.59961 45.7441 7.54492C45.5684 7.49023 45.3652 7.46289 45.1348 7.46289C44.9355 7.46289 44.75 7.49219 44.5781 7.55078C44.4062 7.60547 44.248 7.68164 44.1035 7.7793C43.9863 7.86523 43.877 7.96484 43.7754 8.07812C43.6777 8.19141 43.5918 8.31641 43.5176 8.45312V13H42.4336ZM49.4414 9.77734C49.4414 9.30469 49.498 8.87109 49.6113 8.47656C49.7285 8.07812 49.8965 7.73633 50.1152 7.45117C50.334 7.16602 50.5996 6.94336 50.9121 6.7832C51.2246 6.62305 51.5781 6.54297 51.9727 6.54297C52.2266 6.54297 52.459 6.57227 52.6699 6.63086C52.8848 6.68945 53.0781 6.77539 53.25 6.88867C53.3438 6.94727 53.4316 7.01562 53.5137 7.09375C53.5996 7.17188 53.6797 7.25781 53.7539 7.35156L53.8066 6.66016H54.791V12.8652C54.791 13.2832 54.7246 13.6543 54.5918 13.9785C54.4629 14.3027 54.2812 14.5781 54.0469 14.8047C53.8086 15.0312 53.5254 15.2031 53.1973 15.3203C52.8691 15.4375 52.5059 15.4961 52.1074 15.4961C51.9434 15.4961 51.7559 15.4766 51.5449 15.4375C51.334 15.4023 51.1211 15.3418 50.9062 15.2559C50.6875 15.1738 50.4766 15.0625 50.2734 14.9219C50.0742 14.7812 49.9023 14.6074 49.7578 14.4004L50.3203 13.75C50.4531 13.9102 50.5898 14.0449 50.7305 14.1543C50.8711 14.2676 51.0137 14.3574 51.1582 14.4238C51.3027 14.4902 51.4473 14.5371 51.5918 14.5645C51.7363 14.5957 51.8809 14.6113 52.0254 14.6113C52.2832 14.6113 52.5156 14.5742 52.7227 14.5C52.9297 14.4258 53.1074 14.3164 53.2559 14.1719C53.4004 14.0312 53.5117 13.8555 53.5898 13.6445C53.668 13.4336 53.707 13.1914 53.707 12.918V12.373C53.625 12.4668 53.5371 12.5527 53.4434 12.6309C53.3535 12.709 53.2559 12.7773 53.1504 12.8359C52.9863 12.9258 52.8047 12.9941 52.6055 13.041C52.4062 13.0918 52.1914 13.1172 51.9609 13.1172C51.5742 13.1172 51.2246 13.0352 50.9121 12.8711C50.5996 12.707 50.3359 12.4805 50.1211 12.1914C49.9023 11.9023 49.7344 11.5625 49.6172 11.1719C49.5 10.7773 49.4414 10.3535 49.4414 9.90039V9.77734ZM50.5254 9.90039C50.5254 10.209 50.5566 10.502 50.6191 10.7793C50.6855 11.0566 50.7891 11.3008 50.9297 11.5117C51.0664 11.7227 51.2422 11.8906 51.457 12.0156C51.6719 12.1367 51.9297 12.1973 52.2305 12.1973C52.418 12.1973 52.5859 12.1758 52.7344 12.1328C52.8867 12.0859 53.0234 12.0215 53.1445 11.9395C53.2617 11.8574 53.3672 11.7598 53.4609 11.6465C53.5547 11.5332 53.6367 11.4082 53.707 11.2715V8.36523C53.6367 8.23242 53.5547 8.11133 53.4609 8.00195C53.3672 7.89258 53.2598 7.79688 53.1387 7.71484C53.0176 7.63672 52.8828 7.57617 52.7344 7.5332C52.5859 7.48633 52.4219 7.46289 52.2422 7.46289C51.9375 7.46289 51.6758 7.52539 51.457 7.65039C51.2422 7.77539 51.0664 7.94336 50.9297 8.1543C50.7891 8.36914 50.6855 8.61719 50.6191 8.89844C50.5566 9.17578 50.5254 9.46875 50.5254 9.77734V9.90039ZM56.543 9.77148C56.543 9.31445 56.6094 8.89062 56.7422 8.5C56.875 8.10547 57.0664 7.76367 57.3164 7.47461C57.5625 7.18555 57.8633 6.95898 58.2188 6.79492C58.5742 6.62695 58.9746 6.54297 59.4199 6.54297C59.8691 6.54297 60.2715 6.62695 60.627 6.79492C60.9863 6.95898 61.291 7.18555 61.541 7.47461C61.7871 7.76367 61.9766 8.10547 62.1094 8.5C62.2422 8.89062 62.3086 9.31445 62.3086 9.77148V9.90039C62.3086 10.3574 62.2422 10.7812 62.1094 11.1719C61.9766 11.5625 61.7871 11.9023 61.541 12.1914C61.291 12.4805 60.9883 12.707 60.6328 12.8711C60.2773 13.0352 59.877 13.1172 59.4316 13.1172C58.9824 13.1172 58.5781 13.0352 58.2188 12.8711C57.8633 12.707 57.5625 12.4805 57.3164 12.1914C57.0664 11.9023 56.875 11.5625 56.7422 11.1719C56.6094 10.7812 56.543 10.3574 56.543 9.90039V9.77148ZM57.627 9.90039C57.627 10.2129 57.6641 10.5117 57.7383 10.7969C57.8125 11.0781 57.9258 11.3262 58.0781 11.541C58.2266 11.7559 58.4141 11.9258 58.6406 12.0508C58.8672 12.1758 59.1309 12.2383 59.4316 12.2383C59.7285 12.2383 59.9883 12.1758 60.2109 12.0508C60.4375 11.9258 60.627 11.7559 60.7793 11.541C60.9277 11.3262 61.0391 11.0781 61.1133 10.7969C61.1875 10.5117 61.2246 10.2129 61.2246 9.90039V9.77148C61.2246 9.46289 61.1855 9.16797 61.1074 8.88672C61.0332 8.60156 60.9219 8.35156 60.7734 8.13672C60.6211 7.92188 60.4316 7.75195 60.2051 7.62695C59.9824 7.49805 59.7207 7.43359 59.4199 7.43359C59.1191 7.43359 58.8574 7.49805 58.6348 7.62695C58.4121 7.75195 58.2266 7.92188 58.0781 8.13672C57.9258 8.35156 57.8125 8.60156 57.7383 8.88672C57.6641 9.16797 57.627 9.46289 57.627 9.77148V9.90039ZM63.9434 13V4.46875H65.918C66.25 4.47266 66.5625 4.50781 66.8555 4.57422C67.1523 4.63672 67.4258 4.72656 67.6758 4.84375C68.0234 5.00391 68.3301 5.21484 68.5957 5.47656C68.8652 5.73438 69.0801 6.0332 69.2402 6.37305C69.3848 6.66211 69.4941 6.97852 69.5684 7.32227C69.6465 7.66602 69.6875 8.0332 69.6914 8.42383V9.05078C69.6914 9.42578 69.6543 9.78125 69.5801 10.1172C69.5098 10.4531 69.4062 10.7617 69.2695 11.043C69.1289 11.3359 68.9512 11.6016 68.7363 11.8398C68.5215 12.0781 68.2812 12.2812 68.0156 12.4492C67.7344 12.625 67.416 12.7598 67.0605 12.8535C66.709 12.9473 66.3281 12.9961 65.918 13H63.9434ZM65.0449 5.35938V12.1152H65.918C66.2305 12.1113 66.5137 12.0723 66.7676 11.998C67.0254 11.9238 67.2539 11.8184 67.4531 11.6816C67.6641 11.541 67.8457 11.3691 67.998 11.166C68.1543 10.959 68.2773 10.7285 68.3672 10.4746C68.4453 10.2676 68.5039 10.0449 68.543 9.80664C68.582 9.56445 68.6035 9.3125 68.6074 9.05078V8.41211C68.6035 8.14648 68.5801 7.89258 68.5371 7.65039C68.498 7.4043 68.4375 7.17578 68.3555 6.96484C68.25 6.69141 68.1074 6.44531 67.9277 6.22656C67.752 6.00391 67.5352 5.82422 67.2773 5.6875C67.0938 5.58594 66.8887 5.50781 66.6621 5.45312C66.4355 5.39453 66.1875 5.36328 65.918 5.35938H65.0449ZM71.25 13V4.46875H73.7871C74.1387 4.47266 74.4824 4.51953 74.8184 4.60938C75.1543 4.69531 75.4531 4.83008 75.7148 5.01367C75.9766 5.19727 76.1855 5.43164 76.3418 5.7168C76.498 6.00195 76.5742 6.34375 76.5703 6.74219C76.5664 6.96484 76.5293 7.16797 76.459 7.35156C76.3926 7.53516 76.3008 7.69922 76.1836 7.84375C76.0625 7.99219 75.9277 8.11719 75.7793 8.21875C75.6348 8.32031 75.459 8.41602 75.252 8.50586V8.52344C75.4668 8.57422 75.6738 8.66602 75.873 8.79883C76.0723 8.93164 76.2363 9.07812 76.3652 9.23828C76.502 9.41406 76.6074 9.61133 76.6816 9.83008C76.7598 10.0488 76.7988 10.2852 76.7988 10.5391C76.8027 10.9375 76.7266 11.2891 76.5703 11.5938C76.4141 11.8984 76.2051 12.1523 75.9434 12.3555C75.6816 12.5625 75.3789 12.7207 75.0352 12.8301C74.6953 12.9395 74.3438 12.9961 73.9805 13H71.25ZM72.3398 9.00977V12.0801H74.0098C74.2363 12.0762 74.4512 12.0391 74.6543 11.9688C74.8574 11.8945 75.0371 11.793 75.1934 11.6641C75.3496 11.5352 75.4727 11.377 75.5625 11.1895C75.6562 11.002 75.7031 10.7891 75.7031 10.5508C75.707 10.3086 75.666 10.0938 75.5801 9.90625C75.498 9.71875 75.3828 9.55859 75.2344 9.42578C75.0859 9.29688 74.9121 9.19727 74.7129 9.12695C74.5137 9.05664 74.2988 9.01758 74.0684 9.00977H72.3398ZM72.3398 8.10742H73.8516C74.0547 8.10352 74.2539 8.07227 74.4492 8.01367C74.6445 7.95117 74.8184 7.86133 74.9707 7.74414C75.123 7.63086 75.2461 7.49023 75.3398 7.32227C75.4336 7.1543 75.4805 6.95898 75.4805 6.73633C75.4805 6.49805 75.4336 6.29492 75.3398 6.12695C75.25 5.95898 75.1289 5.82031 74.9766 5.71094C74.8203 5.60547 74.6406 5.52734 74.4375 5.47656C74.2383 5.42578 74.0332 5.39844 73.8223 5.39453H72.3398V8.10742Z" fill="black"/>
</svg>
