<svg width="78" height="16" viewBox="0 0 78 16" fill="none" xmlns="http://www.w3.org/2000/svg">
<circle cx="7.5" cy="8" r="7.5" fill="#79B460"/>
<path d="M28.0195 13V6.66016H28.9922L29.0684 7.59766C29.1621 7.46484 29.2637 7.34375 29.373 7.23438C29.4863 7.12109 29.6055 7.02344 29.7305 6.94141C29.918 6.81641 30.1211 6.7207 30.3398 6.6543C30.5625 6.58398 30.7969 6.54688 31.043 6.54297C31.375 6.54297 31.6758 6.58984 31.9453 6.68359C32.2188 6.77734 32.4512 6.92383 32.6426 7.12305C32.834 7.32227 32.9805 7.57617 33.082 7.88477C33.1875 8.18945 33.2402 8.55273 33.2402 8.97461V13H32.1562V8.99805C32.1562 8.7168 32.125 8.47852 32.0625 8.2832C32 8.08789 31.9082 7.92969 31.7871 7.80859C31.6621 7.6875 31.5098 7.59961 31.3301 7.54492C31.1543 7.49023 30.9512 7.46289 30.7207 7.46289C30.5215 7.46289 30.3359 7.49219 30.1641 7.55078C29.9922 7.60547 29.834 7.68164 29.6895 7.7793C29.5723 7.86523 29.4629 7.96484 29.3613 8.07812C29.2637 8.19141 29.1777 8.31641 29.1035 8.45312V13H28.0195ZM34.9219 9.77148C34.9219 9.31445 34.9883 8.89062 35.1211 8.5C35.2539 8.10547 35.4453 7.76367 35.6953 7.47461C35.9414 7.18555 36.2422 6.95898 36.5977 6.79492C36.9531 6.62695 37.3535 6.54297 37.7988 6.54297C38.248 6.54297 38.6504 6.62695 39.0059 6.79492C39.3652 6.95898 39.6699 7.18555 39.9199 7.47461C40.166 7.76367 40.3555 8.10547 40.4883 8.5C40.6211 8.89062 40.6875 9.31445 40.6875 9.77148V9.90039C40.6875 10.3574 40.6211 10.7812 40.4883 11.1719C40.3555 11.5625 40.166 11.9023 39.9199 12.1914C39.6699 12.4805 39.3672 12.707 39.0117 12.8711C38.6562 13.0352 38.2559 13.1172 37.8105 13.1172C37.3613 13.1172 36.957 13.0352 36.5977 12.8711C36.2422 12.707 35.9414 12.4805 35.6953 12.1914C35.4453 11.9023 35.2539 11.5625 35.1211 11.1719C34.9883 10.7812 34.9219 10.3574 34.9219 9.90039V9.77148ZM36.0059 9.90039C36.0059 10.2129 36.043 10.5117 36.1172 10.7969C36.1914 11.0781 36.3047 11.3262 36.457 11.541C36.6055 11.7559 36.793 11.9258 37.0195 12.0508C37.2461 12.1758 37.5098 12.2383 37.8105 12.2383C38.1074 12.2383 38.3672 12.1758 38.5898 12.0508C38.8164 11.9258 39.0059 11.7559 39.1582 11.541C39.3066 11.3262 39.418 11.0781 39.4922 10.7969C39.5664 10.5117 39.6035 10.2129 39.6035 9.90039V9.77148C39.6035 9.46289 39.5645 9.16797 39.4863 8.88672C39.4121 8.60156 39.3008 8.35156 39.1523 8.13672C39 7.92188 38.8105 7.75195 38.584 7.62695C38.3613 7.49805 38.0996 7.43359 37.7988 7.43359C37.498 7.43359 37.2363 7.49805 37.0137 7.62695C36.791 7.75195 36.6055 7.92188 36.457 8.13672C36.3047 8.35156 36.1914 8.60156 36.1172 8.88672C36.043 9.16797 36.0059 9.46289 36.0059 9.77148V9.90039ZM42.2285 9.77734C42.2285 9.30469 42.2871 8.87109 42.4043 8.47656C42.5254 8.07812 42.6973 7.73633 42.9199 7.45117C43.1387 7.16602 43.4043 6.94336 43.7168 6.7832C44.0293 6.62305 44.3789 6.54297 44.7656 6.54297C45.1445 6.54297 45.4746 6.60742 45.7559 6.73633C46.041 6.86133 46.2871 7.04492 46.4941 7.28711V4H47.5781V13H46.582L46.5352 12.332C46.3242 12.5898 46.0723 12.7852 45.7793 12.918C45.4863 13.0508 45.1445 13.1172 44.7539 13.1172C44.3711 13.1172 44.0234 13.0352 43.7109 12.8711C43.4023 12.707 43.1387 12.4805 42.9199 12.1914C42.7012 11.9023 42.5312 11.5625 42.4102 11.1719C42.2891 10.7773 42.2285 10.3535 42.2285 9.90039V9.77734ZM43.3125 9.90039C43.3125 10.209 43.3457 10.502 43.4121 10.7793C43.4785 11.0566 43.582 11.3008 43.7227 11.5117C43.8594 11.7227 44.0352 11.8906 44.25 12.0156C44.4648 12.1367 44.7227 12.1973 45.0234 12.1973C45.3867 12.1973 45.6875 12.1152 45.9258 11.9512C46.1641 11.7871 46.3535 11.5664 46.4941 11.2891V8.34766C46.3535 8.08984 46.1641 7.87891 45.9258 7.71484C45.6875 7.54688 45.3906 7.46289 45.0352 7.46289C44.7305 7.46289 44.4688 7.52539 44.25 7.65039C44.0352 7.77539 43.8594 7.94336 43.7227 8.1543C43.582 8.36914 43.4785 8.61719 43.4121 8.89844C43.3457 9.17578 43.3125 9.46875 43.3125 9.77734V9.90039ZM52.4414 13.1172C51.9961 13.1172 51.5859 13.041 51.2109 12.8887C50.8398 12.7363 50.5215 12.5234 50.2559 12.25C49.9902 11.9766 49.7832 11.6523 49.6348 11.2773C49.4863 10.9023 49.4121 10.4941 49.4121 10.0527V9.80664C49.4121 9.29492 49.4941 8.83789 49.6582 8.43555C49.8223 8.0293 50.041 7.68555 50.3145 7.4043C50.584 7.12695 50.8906 6.91406 51.2344 6.76562C51.582 6.61719 51.9375 6.54297 52.3008 6.54297C52.7578 6.54297 53.1562 6.62305 53.4961 6.7832C53.8398 6.93945 54.125 7.15625 54.3516 7.43359C54.5781 7.71484 54.7461 8.04492 54.8555 8.42383C54.9688 8.80273 55.0254 9.21289 55.0254 9.6543V10.1406H50.4961V10.1816C50.5234 10.4902 50.584 10.7617 50.6777 10.9961C50.7754 11.2305 50.9082 11.4375 51.0762 11.6172C51.248 11.8086 51.4551 11.959 51.6973 12.0684C51.9395 12.1777 52.207 12.2324 52.5 12.2324C52.8867 12.2324 53.2305 12.1543 53.5312 11.998C53.832 11.8418 54.082 11.6348 54.2812 11.377L54.9434 11.8926C54.7324 12.2129 54.416 12.498 53.9941 12.748C53.5762 12.9941 53.0586 13.1172 52.4414 13.1172ZM52.3008 7.43359C52.082 7.43359 51.875 7.47461 51.6797 7.55664C51.4844 7.63477 51.3086 7.75 51.1523 7.90234C50.9961 8.05859 50.8633 8.25 50.7539 8.47656C50.6484 8.69922 50.5742 8.95703 50.5312 9.25H53.9414V9.19727C53.9414 9.00195 53.9043 8.79297 53.8301 8.57031C53.7559 8.34375 53.6523 8.14844 53.5195 7.98438C53.3867 7.82031 53.2188 7.6875 53.0156 7.58594C52.8164 7.48438 52.5781 7.43359 52.3008 7.43359ZM58.7344 12.2969C58.7344 12.0664 58.8047 11.8691 58.9453 11.7051C59.0859 11.541 59.2988 11.459 59.584 11.459C59.8652 11.459 60.0781 11.541 60.2227 11.7051C60.3711 11.8652 60.4453 12.0625 60.4453 12.2969C60.4453 12.5273 60.3711 12.7207 60.2227 12.877C60.0742 13.0332 59.8613 13.1113 59.584 13.1113C59.3027 13.1113 59.0898 13.0332 58.9453 12.877C58.8047 12.7168 58.7344 12.5234 58.7344 12.2969ZM64.7871 6.66016H67.9863V13.041C67.9863 13.4473 67.9297 13.8066 67.8164 14.1191C67.707 14.4316 67.5469 14.6934 67.3359 14.9043C67.1211 15.1191 66.8594 15.2812 66.5508 15.3906C66.2461 15.5039 65.8984 15.5605 65.5078 15.5605C65.3867 15.5605 65.2695 15.5586 65.1562 15.5547C65.043 15.5508 64.9316 15.5449 64.8223 15.5371C64.7324 15.5293 64.6426 15.5176 64.5527 15.502C64.4629 15.4902 64.3691 15.4766 64.2715 15.4609L64.3477 14.5703C64.4141 14.582 64.498 14.5918 64.5996 14.5996C64.7012 14.6113 64.8047 14.6191 64.9102 14.623C65.0117 14.6309 65.1094 14.6348 65.2031 14.6348C65.3008 14.6387 65.377 14.6406 65.4316 14.6406C65.6348 14.6406 65.8262 14.6133 66.0059 14.5586C66.1855 14.5078 66.3418 14.4199 66.4746 14.2949C66.6074 14.1699 66.7109 14.0039 66.7852 13.7969C66.8633 13.5938 66.9023 13.3418 66.9023 13.041V7.60352H64.7871V6.66016ZM66.75 4.99023C66.75 4.81445 66.8027 4.66602 66.9082 4.54492C67.0137 4.41992 67.1758 4.35742 67.3945 4.35742C67.6133 4.35742 67.7773 4.41992 67.8867 4.54492C67.9961 4.66602 68.0508 4.81445 68.0508 4.99023C68.0508 5.16602 67.9961 5.31445 67.8867 5.43555C67.7773 5.55273 67.6133 5.61133 67.3945 5.61133C67.1758 5.61133 67.0137 5.55273 66.9082 5.43555C66.8027 5.31445 66.75 5.16602 66.75 4.99023ZM75.4746 11.3184C75.4746 11.1895 75.4492 11.0742 75.3984 10.9727C75.3477 10.8672 75.2617 10.7715 75.1406 10.6855C75.0195 10.5996 74.8594 10.5215 74.6602 10.4512C74.4609 10.377 74.2129 10.3105 73.916 10.252C73.5527 10.1777 73.2207 10.0879 72.9199 9.98242C72.623 9.87695 72.3691 9.75 72.1582 9.60156C71.9434 9.45703 71.7773 9.28711 71.6602 9.0918C71.543 8.89258 71.4844 8.66211 71.4844 8.40039C71.4844 8.14258 71.5449 7.90234 71.666 7.67969C71.7871 7.45312 71.957 7.25586 72.1758 7.08789C72.3945 6.91992 72.6543 6.78711 72.9551 6.68945C73.2598 6.5918 73.5938 6.54297 73.957 6.54297C74.3477 6.54297 74.6992 6.59375 75.0117 6.69531C75.3242 6.79688 75.5898 6.9375 75.8086 7.11719C76.0273 7.29688 76.1953 7.50781 76.3125 7.75C76.4336 7.98828 76.4941 8.24609 76.4941 8.52344H75.4102C75.4102 8.38672 75.375 8.25391 75.3047 8.125C75.2344 7.99219 75.1367 7.875 75.0117 7.77344C74.8867 7.67188 74.7344 7.58984 74.5547 7.52734C74.3789 7.46484 74.1797 7.43359 73.957 7.43359C73.7266 7.43359 73.5234 7.45898 73.3477 7.50977C73.1758 7.56055 73.0332 7.62891 72.9199 7.71484C72.8027 7.80078 72.7148 7.90039 72.6562 8.01367C72.5977 8.12695 72.5684 8.24414 72.5684 8.36523C72.5684 8.49023 72.5918 8.60156 72.6387 8.69922C72.6855 8.79688 72.7676 8.88477 72.8848 8.96289C72.998 9.04102 73.1504 9.11133 73.3418 9.17383C73.5371 9.23633 73.7832 9.29688 74.0801 9.35547C74.4707 9.4375 74.8203 9.5332 75.1289 9.64258C75.4375 9.74805 75.6973 9.875 75.9082 10.0234C76.1191 10.1758 76.2793 10.3516 76.3887 10.5508C76.502 10.75 76.5586 10.9805 76.5586 11.2422C76.5586 11.5234 76.4941 11.7793 76.3652 12.0098C76.2402 12.2402 76.0645 12.4375 75.8379 12.6016C75.6113 12.7656 75.3398 12.8926 75.0234 12.9824C74.707 13.0723 74.3613 13.1172 73.9863 13.1172C73.5566 13.1172 73.1738 13.0605 72.8379 12.9473C72.502 12.8301 72.2188 12.6758 71.9883 12.4844C71.7539 12.2969 71.5742 12.0781 71.4492 11.8281C71.3281 11.5781 71.2676 11.3184 71.2676 11.0488H72.3516C72.3672 11.2715 72.4258 11.459 72.5273 11.6113C72.6328 11.7637 72.7637 11.8867 72.9199 11.9805C73.0723 12.0742 73.2422 12.1406 73.4297 12.1797C73.6172 12.2188 73.8027 12.2383 73.9863 12.2383C74.2754 12.2383 74.5273 12.2051 74.7422 12.1387C74.957 12.0684 75.125 11.9727 75.2461 11.8516C75.3203 11.7773 75.377 11.6953 75.416 11.6055C75.4551 11.5156 75.4746 11.4199 75.4746 11.3184Z" fill="black"/>
</svg>
