<svg width="56" height="16" viewBox="0 0 56 16" fill="none" xmlns="http://www.w3.org/2000/svg">
<circle cx="7.5" cy="8" r="7.5" fill="#CD6799"/>
<path d="M32.4844 10.8438C32.4844 11.0781 32.4336 11.2812 32.332 11.4531C32.2305 11.6211 32.0996 11.7598 31.9395 11.8691C31.7793 11.9824 31.5957 12.0664 31.3887 12.1211C31.1855 12.1719 30.9785 12.1973 30.7676 12.1973C30.502 12.1973 30.2559 12.1621 30.0293 12.0918C29.8066 12.0176 29.6094 11.9082 29.4375 11.7637C29.2656 11.623 29.125 11.4512 29.0156 11.248C28.9062 11.041 28.834 10.8047 28.7988 10.5391H27.6914C27.7031 10.9062 27.7832 11.2402 27.9316 11.541C28.084 11.8379 28.2891 12.0977 28.5469 12.3203C28.8359 12.5781 29.1758 12.7754 29.5664 12.9121C29.9609 13.0488 30.3613 13.1172 30.7676 13.1172C31.1074 13.1172 31.4473 13.0703 31.7871 12.9766C32.127 12.8789 32.4316 12.7344 32.7012 12.543C32.9707 12.3555 33.1895 12.1191 33.3574 11.834C33.5293 11.5488 33.6152 11.2148 33.6152 10.832C33.6152 10.4531 33.5352 10.1191 33.375 9.83008C33.2188 9.54102 33.0117 9.29688 32.7539 9.09766C32.4922 8.88281 32.2031 8.70703 31.8867 8.57031C31.5703 8.42969 31.2539 8.31055 30.9375 8.21289C30.7461 8.1543 30.541 8.08594 30.3223 8.00781C30.1074 7.92969 29.9082 7.83203 29.7246 7.71484C29.5371 7.59766 29.3828 7.45508 29.2617 7.28711C29.1406 7.11523 29.0781 6.90625 29.0742 6.66016C29.0742 6.43359 29.1191 6.23438 29.209 6.0625C29.3027 5.89062 29.4277 5.74609 29.584 5.62891C29.7363 5.51172 29.9102 5.42383 30.1055 5.36523C30.3047 5.30664 30.5078 5.27734 30.7148 5.27734C30.9727 5.27734 31.2031 5.31836 31.4062 5.40039C31.6133 5.47852 31.791 5.58984 31.9395 5.73438C32.0879 5.87891 32.207 6.05273 32.2969 6.25586C32.3867 6.45508 32.4473 6.67773 32.4785 6.92383H33.5918C33.584 6.5332 33.5 6.17969 33.3398 5.86328C33.1797 5.54688 32.9668 5.27734 32.7012 5.05469C32.4355 4.83203 32.1309 4.66016 31.7871 4.53906C31.4434 4.41406 31.0859 4.35156 30.7148 4.35156C30.3789 4.35156 30.0449 4.4043 29.7129 4.50977C29.3809 4.61133 29.084 4.76172 28.8223 4.96094C28.5605 5.16016 28.3477 5.4043 28.1836 5.69336C28.0234 5.98242 27.9434 6.31055 27.9434 6.67773C27.9434 7.04492 28.0234 7.36523 28.1836 7.63867C28.3477 7.9082 28.5586 8.14258 28.8164 8.3418C29.0703 8.53711 29.3516 8.70508 29.6602 8.8457C29.9727 8.98242 30.2793 9.09961 30.5801 9.19727C30.7871 9.26367 31.002 9.33789 31.2246 9.41992C31.4512 9.50195 31.6582 9.60352 31.8457 9.72461C32.0332 9.84961 32.1855 10.002 32.3027 10.1816C32.4238 10.3613 32.4844 10.582 32.4844 10.8438ZM39.3926 13H40.5234V12.9062C40.4531 12.7305 40.3984 12.5254 40.3594 12.291C40.3203 12.0527 40.3008 11.8281 40.3008 11.6172V8.66992C40.3008 8.31445 40.2363 8.00391 40.1074 7.73828C39.9785 7.47266 39.8027 7.25 39.5801 7.07031C39.3535 6.89453 39.0859 6.76367 38.7773 6.67773C38.4688 6.58789 38.1348 6.54297 37.7754 6.54297C37.3809 6.54297 37.0273 6.59766 36.7148 6.70703C36.4062 6.81641 36.1445 6.95898 35.9297 7.13477C35.7109 7.31445 35.543 7.51562 35.4258 7.73828C35.3125 7.96094 35.2539 8.1875 35.25 8.41797H36.3398C36.3398 8.28516 36.3711 8.1582 36.4336 8.03711C36.5 7.91211 36.5918 7.80469 36.709 7.71484C36.8262 7.625 36.9688 7.55273 37.1367 7.49805C37.3086 7.44336 37.502 7.41602 37.7168 7.41602C37.9473 7.41602 38.1543 7.44531 38.3379 7.50391C38.5254 7.5625 38.6836 7.64453 38.8125 7.75C38.9414 7.85938 39.041 7.99023 39.1113 8.14258C39.1816 8.29492 39.2168 8.4668 39.2168 8.6582V9.15625H38.0332C37.5918 9.15625 37.1914 9.19922 36.832 9.28516C36.4766 9.37109 36.1719 9.5 35.918 9.67188C35.6641 9.84766 35.4668 10.0664 35.3262 10.3281C35.1895 10.5898 35.1211 10.8945 35.1211 11.2422C35.1211 11.5078 35.1719 11.7559 35.2734 11.9863C35.3789 12.2129 35.5273 12.4082 35.7188 12.5723C35.9062 12.7402 36.1348 12.873 36.4043 12.9707C36.6777 13.0684 36.9824 13.1172 37.3184 13.1172C37.5254 13.1172 37.7207 13.0957 37.9043 13.0527C38.0879 13.0098 38.2617 12.9512 38.4258 12.877C38.5859 12.8027 38.7324 12.7168 38.8652 12.6191C39.002 12.5215 39.125 12.418 39.2344 12.3086C39.2461 12.4414 39.2637 12.5703 39.2871 12.6953C39.3145 12.8164 39.3496 12.918 39.3926 13ZM37.4766 12.1738C37.2656 12.1738 37.0801 12.1465 36.9199 12.0918C36.7598 12.0371 36.627 11.9609 36.5215 11.8633C36.416 11.7695 36.3359 11.6562 36.2812 11.5234C36.2305 11.3906 36.2051 11.2461 36.2051 11.0898C36.2051 10.9258 36.2344 10.7793 36.293 10.6504C36.3555 10.5215 36.4453 10.4102 36.5625 10.3164C36.7266 10.1836 36.9473 10.0859 37.2246 10.0234C37.5059 9.95703 37.834 9.92383 38.209 9.92383H39.2168V11.207C39.1543 11.332 39.0684 11.4531 38.959 11.5703C38.8496 11.6836 38.7207 11.7852 38.5723 11.875C38.4199 11.9648 38.252 12.0371 38.0684 12.0918C37.8848 12.1465 37.6875 12.1738 37.4766 12.1738ZM46.6465 11.3184C46.6465 11.4199 46.627 11.5156 46.5879 11.6055C46.5488 11.6953 46.4922 11.7773 46.418 11.8516C46.2969 11.9727 46.1289 12.0684 45.9141 12.1387C45.6992 12.2051 45.4473 12.2383 45.1582 12.2383C44.9746 12.2383 44.7891 12.2188 44.6016 12.1797C44.4141 12.1406 44.2441 12.0742 44.0918 11.9805C43.9355 11.8867 43.8047 11.7637 43.6992 11.6113C43.5977 11.459 43.5391 11.2715 43.5234 11.0488H42.4395C42.4395 11.3184 42.5 11.5781 42.6211 11.8281C42.7461 12.0781 42.9258 12.2969 43.1602 12.4844C43.3906 12.6758 43.6738 12.8301 44.0098 12.9473C44.3457 13.0605 44.7285 13.1172 45.1582 13.1172C45.5332 13.1172 45.8789 13.0723 46.1953 12.9824C46.5117 12.8926 46.7832 12.7656 47.0098 12.6016C47.2363 12.4375 47.4121 12.2402 47.5371 12.0098C47.666 11.7793 47.7305 11.5234 47.7305 11.2422C47.7305 10.9805 47.6738 10.75 47.5605 10.5508C47.4512 10.3516 47.291 10.1758 47.0801 10.0234C46.8691 9.875 46.6094 9.74805 46.3008 9.64258C45.9922 9.5332 45.6426 9.4375 45.252 9.35547C44.9551 9.29688 44.709 9.23633 44.5137 9.17383C44.3223 9.11133 44.1699 9.04102 44.0566 8.96289C43.9395 8.88477 43.8574 8.79688 43.8105 8.69922C43.7637 8.60156 43.7402 8.49023 43.7402 8.36523C43.7402 8.24414 43.7695 8.12695 43.8281 8.01367C43.8867 7.90039 43.9746 7.80078 44.0918 7.71484C44.2051 7.62891 44.3477 7.56055 44.5195 7.50977C44.6953 7.45898 44.8984 7.43359 45.1289 7.43359C45.3516 7.43359 45.5508 7.46484 45.7266 7.52734C45.9062 7.58984 46.0586 7.67188 46.1836 7.77344C46.3086 7.875 46.4062 7.99219 46.4766 8.125C46.5469 8.25391 46.582 8.38672 46.582 8.52344H47.666C47.666 8.24609 47.6055 7.98828 47.4844 7.75C47.3672 7.50781 47.1992 7.29688 46.9805 7.11719C46.7617 6.9375 46.4961 6.79688 46.1836 6.69531C45.8711 6.59375 45.5195 6.54297 45.1289 6.54297C44.7656 6.54297 44.4316 6.5918 44.127 6.68945C43.8262 6.78711 43.5664 6.91992 43.3477 7.08789C43.1289 7.25586 42.959 7.45312 42.8379 7.67969C42.7168 7.90234 42.6562 8.14258 42.6562 8.40039C42.6562 8.66211 42.7148 8.89258 42.832 9.0918C42.9492 9.28711 43.1152 9.45703 43.3301 9.60156C43.541 9.75 43.7949 9.87695 44.0918 9.98242C44.3926 10.0879 44.7246 10.1777 45.0879 10.252C45.3848 10.3105 45.6328 10.377 45.832 10.4512C46.0312 10.5215 46.1914 10.5996 46.3125 10.6855C46.4336 10.7715 46.5195 10.8672 46.5703 10.9727C46.6211 11.0742 46.6465 11.1895 46.6465 11.3184ZM53.8535 11.3184C53.8535 11.4199 53.834 11.5156 53.7949 11.6055C53.7559 11.6953 53.6992 11.7773 53.625 11.8516C53.5039 11.9727 53.3359 12.0684 53.1211 12.1387C52.9062 12.2051 52.6543 12.2383 52.3652 12.2383C52.1816 12.2383 51.9961 12.2188 51.8086 12.1797C51.6211 12.1406 51.4512 12.0742 51.2988 11.9805C51.1426 11.8867 51.0117 11.7637 50.9062 11.6113C50.8047 11.459 50.7461 11.2715 50.7305 11.0488H49.6465C49.6465 11.3184 49.707 11.5781 49.8281 11.8281C49.9531 12.0781 50.1328 12.2969 50.3672 12.4844C50.5977 12.6758 50.8809 12.8301 51.2168 12.9473C51.5527 13.0605 51.9355 13.1172 52.3652 13.1172C52.7402 13.1172 53.0859 13.0723 53.4023 12.9824C53.7188 12.8926 53.9902 12.7656 54.2168 12.6016C54.4434 12.4375 54.6191 12.2402 54.7441 12.0098C54.873 11.7793 54.9375 11.5234 54.9375 11.2422C54.9375 10.9805 54.8809 10.75 54.7676 10.5508C54.6582 10.3516 54.498 10.1758 54.2871 10.0234C54.0762 9.875 53.8164 9.74805 53.5078 9.64258C53.1992 9.5332 52.8496 9.4375 52.459 9.35547C52.1621 9.29688 51.916 9.23633 51.7207 9.17383C51.5293 9.11133 51.377 9.04102 51.2637 8.96289C51.1465 8.88477 51.0645 8.79688 51.0176 8.69922C50.9707 8.60156 50.9473 8.49023 50.9473 8.36523C50.9473 8.24414 50.9766 8.12695 51.0352 8.01367C51.0938 7.90039 51.1816 7.80078 51.2988 7.71484C51.4121 7.62891 51.5547 7.56055 51.7266 7.50977C51.9023 7.45898 52.1055 7.43359 52.3359 7.43359C52.5586 7.43359 52.7578 7.46484 52.9336 7.52734C53.1133 7.58984 53.2656 7.67188 53.3906 7.77344C53.5156 7.875 53.6133 7.99219 53.6836 8.125C53.7539 8.25391 53.7891 8.38672 53.7891 8.52344H54.873C54.873 8.24609 54.8125 7.98828 54.6914 7.75C54.5742 7.50781 54.4062 7.29688 54.1875 7.11719C53.9688 6.9375 53.7031 6.79688 53.3906 6.69531C53.0781 6.59375 52.7266 6.54297 52.3359 6.54297C51.9727 6.54297 51.6387 6.5918 51.334 6.68945C51.0332 6.78711 50.7734 6.91992 50.5547 7.08789C50.3359 7.25586 50.166 7.45312 50.0449 7.67969C49.9238 7.90234 49.8633 8.14258 49.8633 8.40039C49.8633 8.66211 49.9219 8.89258 50.0391 9.0918C50.1562 9.28711 50.3223 9.45703 50.5371 9.60156C50.748 9.75 51.002 9.87695 51.2988 9.98242C51.5996 10.0879 51.9316 10.1777 52.2949 10.252C52.5918 10.3105 52.8398 10.377 53.0391 10.4512C53.2383 10.5215 53.3984 10.5996 53.5195 10.6855C53.6406 10.7715 53.7266 10.8672 53.7773 10.9727C53.8281 11.0742 53.8535 11.1895 53.8535 11.3184Z" fill="black"/>
</svg>
